<?xml version="1.0" standalone="no"?>
<!DOCTYPE svg PUBLIC "-//W3C//DTD SVG 1.1//EN" "http://www.w3.org/Graphics/SVG/1.1/DTD/svg11.dtd" >
<svg xmlns="http://www.w3.org/2000/svg">
<metadata>Generated by IcoMoon</metadata>
<defs>
<font id="MaterialIcons-Regular" horiz-adv-x="1024">
<font-face units-per-em="1024" ascent="1024" descent="0" />
<missing-glyph horiz-adv-x="1024" />
<glyph unicode="&#x20;" horiz-adv-x="0" d="" />
<glyph unicode="&#xe900;" glyph-name="Markdown" d="M142 745.4v-278.4l184-92.8v185c0 101.6 0.4 184.8 0.8 184.8s41.6-20.2 91.4-45c50-24.8 92.2-45 93.8-45s43.8 20.2 93.8 45c49.8 24.8 91 45 91.4 45s0.8-83.2 0.8-184.8v-185l184 92.8v557l-370-185-370 185v-278.6zM142.2 334.6v-57.6l369.8-277.6 369.8 277.6v57.6l0.2 57.8-8.6-5c-4.6-2.6-87.8-49.2-184.8-103.2l-176.6-98.2-176.4 98.2c-97.2 54-180.4 100.6-185 103.2l-8.6 5 0.2-57.8z" />
<glyph unicode="&#xe902;" glyph-name="uniE000" d="M554 470v256h-84v-256h84zM554 298v86h-84v-86h84zM512 938q176 0 301-125t125-301-125-301-301-125-301 125-125 301 125 301 301 125z" />
<glyph unicode="&#xe903;" glyph-name="uniE001" d="M512 170q140 0 241 101t101 241-101 241-241 101-241-101-101-241 101-241 241-101zM512 938q176 0 301-125t125-301-125-301-301-125-301 125-125 301 125 301 301 125zM470 726h84v-256h-84v256zM470 384h84v-86h-84v86z" />
<glyph unicode="&#xe904;" glyph-name="uniE8B2" d="M554 426v172h-84v-172h84zM554 256v86h-84v-86h84zM42 128l470 810 470-810h-940z" />
<glyph unicode="&#xe905;" glyph-name="uniE003" d="M682 468v86h-128v128h-84v-128h-128v-86h128v-128h84v128h128zM806 306l90-90v-46h-768v46l90 90v248q0 102 64 183t162 103v30q0 28 20 48t48 20 48-20 20-48v-30q98-22 162-103t64-183v-248zM428 128h168q0-34-25-60t-59-26-59 26-25 60z" />
<glyph unicode="&#xe906;" glyph-name="uniE019" d="M512 554q18 0 30-12t12-30-12-30-30-12-30 12-12 30 12 30 30 12zM512 320q80 0 136 56t56 136-56 136-136 56-136-56-56-136 56-136 136-56zM512 938q176 0 301-125t125-301-125-301-301-125-301 125-125 301 125 301 301 125z" />
<glyph unicode="&#xe907;" glyph-name="uniE01B" d="M256 512q0 18 12 30t30 12 31-12 13-30-13-30-31-12-30 12-12 30zM768 512q0-18-12-30t-30-12-31 12-13 30 13 30 31 12 30-12 12-30zM470 896h42q160 0 272-112t112-272-112-272-272-112-272 112-112 272q0 192 154 306v2l290-290-60-60-232 230q-66-82-66-188 0-124 87-211t211-87 211 87 87 211q0 112-74 196t-182 100v-82h-84v170zM470 298q0 18 12 31t30 13 30-13 12-31-12-30-30-12-30 12-12 30z" />
<glyph unicode="&#xe908;" glyph-name="uniE01C" d="M768 554v44q0 18-12 30t-30 12h-128q-18 0-31-12t-13-30v-172q0-18 13-30t31-12h128q18 0 30 12t12 30v44h-64v-22h-86v128h86v-22h64zM470 554v44q0 18-13 30t-31 12h-128q-18 0-30-12t-12-30v-172q0-18 12-30t30-12h128q18 0 31 12t13 30v44h-64v-22h-86v128h86v-22h64zM810 854q34 0 60-26t26-60v-512q0-34-26-60t-60-26h-596q-36 0-61 26t-25 60v512q0 34 25 60t61 26h596z" />
<glyph unicode="&#xe909;" glyph-name="uniE01D" d="M682 640h172v-470h-172v470zM170 170v342h172v-342h-172zM426 170v684h172v-684h-172z" />
<glyph unicode="&#xe90a;" glyph-name="uniE01E" d="M640 640v86h-256v-428h256v86h-170v86h170v84h-170v86h170zM810 896q34 0 60-26t26-60v-596q0-34-26-60t-60-26h-596q-34 0-60 26t-26 60v596q0 34 26 60t60 26h596z" />
<glyph unicode="&#xe90b;" glyph-name="uniE01F" d="M554 768l364-256-364-256v512zM170 256v512l364-256z" />
<glyph unicode="&#xe90c;" glyph-name="uniE020" d="M490 512l364 256v-512zM470 256l-364 256 364 256v-512z" />
<glyph unicode="&#xe90d;" glyph-name="uniE30F" d="M704 640h234v-256h-234l-128 128zM384 320l128 128 128-128v-234h-256v234zM320 640l128-128-128-128h-234v256h234zM640 704l-128-128-128 128v234h256v-234z" />
<glyph unicode="&#xe90e;" glyph-name="uniE023" d="M490 640q0 44 32 75t76 31 75-31 31-75-31-75-75-31-76 31-32 75zM326 912q-112-112-112-272t112-272l-60-60q-138 138-138 332t138 332zM726 170q34 0 59 26t25 60h86q0-70-50-120t-120-50q-40 0-70 14-82 42-118 152-14 44-72 88-82 60-122 134-46 82-46 166 0 126 87 212t213 86 212-86 86-212h-86q0 90-61 152t-151 62-152-62-62-152q0-64 34-126 28-54 100-108 80-60 102-128 26-76 72-100 16-8 34-8z" />
<glyph unicode="&#xe90f;" glyph-name="uniE024" d="M618 448v128h86v-128h-86zM768 426v172q0 18-12 30t-30 12h-128q-18 0-31-12t-13-30v-172q0-18 13-30t31-12h32v-64h64v64h32q18 0 30 12t12 30zM470 384v256h-64v-106h-86v106h-64v-256h64v86h86v-86h64zM810 854q34 0 60-26t26-60v-512q0-34-26-60t-60-26h-596q-36 0-61 26t-25 60v512q0 34 25 60t61 26h596z" />
<glyph unicode="&#xe910;" glyph-name="uniE627" d="M512 256v128l170-170-170-172v128q-140 0-241 101t-101 241q0 100 54 182l62-62q-30-54-30-120 0-106 75-181t181-75zM512 854q140 0 241-101t101-241q0-100-54-182l-62 62q30 54 30 120 0 106-75 181t-181 75v-128l-170 170 170 172v-128z" />
<glyph unicode="&#xe911;" glyph-name="uniE029" d="M738 554h72q0-108-75-189t-181-97v-140h-84v140q-106 16-181 97t-75 189h72q0-94 67-155t159-61 159 61 67 155zM512 426q-52 0-90 38t-38 90v256q0 52 38 90t90 38 90-38 38-90v-256q0-52-38-90t-90-38z" />
<glyph unicode="&#xe912;" glyph-name="uniE02A" d="M738 554h72q0-108-75-189t-181-97v-140h-84v140q-106 16-181 97t-75 189h72q0-94 67-155t159-61 159 61 67 155zM460 814v-264q0-20 15-35t37-15q20 0 35 14t15 36l2 264q0 22-16 37t-36 15-36-15-16-37zM512 426q-52 0-90 38t-38 90v256q0 52 38 90t90 38 90-38 38-90v-256q0-52-38-90t-90-38z" />
<glyph unicode="&#xe913;" glyph-name="uniE02B" d="M182 896l714-714-54-54-178 178q-44-28-110-38v-140h-84v140q-106 16-181 97t-75 189h72q0-94 67-155t159-61q50 0 98 22l-70 70q-16-4-28-4-52 0-90 38t-38 90v32l-256 256zM640 548l-256 254v8q0 52 38 90t90 38 90-38 38-90v-262zM810 554q0-74-38-140l-52 54q18 40 18 86h72z" />
<glyph unicode="&#xe914;" glyph-name="uniE404" d="M768 854h170v-598q0-34-25-60t-59-26h-684q-34 0-59 26t-25 60v512q0 34 25 60t59 26h44l84-172h128l-84 172h84l86-172h128l-86 172h86l86-172h128z" />
<glyph unicode="&#xe915;" glyph-name="uniE39D" d="M810 554v86h-170v170h-86v-170h-170v-86h170v-170h86v170h170zM854 938q34 0 59-25t25-59v-512q0-34-25-60t-59-26h-512q-34 0-60 26t-26 60v512q0 34 26 59t60 25h512zM170 768v-598h598v-84h-598q-34 0-59 25t-25 59v598h84z" />
<glyph unicode="&#xe916;" glyph-name="uniE02F" d="M810 726v84h-426v-84h426zM640 384v86h-256v-86h256zM810 554v86h-426v-86h426zM854 938q34 0 59-25t25-59v-512q0-34-25-60t-59-26h-512q-34 0-60 26t-26 60v512q0 34 26 59t60 25h512zM170 768v-598h598v-84h-598q-34 0-59 25t-25 59v598h84z" />
<glyph unicode="&#xe917;" glyph-name="uniE030" d="M170 768v-598h598v-84h-598q-34 0-59 25t-25 59v598h84zM768 726v84h-170v-234q-28 22-64 22-44 0-76-32t-32-76 32-75 76-31 75 31 31 75v236h128zM854 938q34 0 59-25t25-59v-512q0-34-25-60t-59-26h-512q-34 0-60 26t-26 60v512q0 34 26 59t60 25h512z" />
<glyph unicode="&#xe918;" glyph-name="uniE031" d="M554 470v256h-84v-256h84zM554 298v86h-84v-86h84zM982 512l-104-118 14-158-154-34-80-136-146 62-146-62-80 134-154 36 14 158-104 118 104 120-14 156 154 34 80 136 146-62 146 62 80-136 154-34-14-158z" />
<glyph unicode="&#xe919;" glyph-name="uniE612" d="M782 302q72 90 72 210 0 140-101 241t-241 101q-120 0-210-72zM512 170q120 0 210 72l-480 480q-72-90-72-210 0-140 101-241t241-101zM512 938q176 0 301-125t125-301-125-301-301-125-301 125-125 301 125 301 301 125z" />
<glyph unicode="&#xe91a;" glyph-name="uniE034" d="M598 810h170v-596h-170v596zM256 214v596h170v-596h-170z" />
<glyph unicode="&#xe91b;" glyph-name="uniE035" d="M640 342v340h-86v-340h86zM470 342v340h-86v-340h86zM512 938q176 0 301-125t125-301-125-301-301-125-301 125-125 301 125 301 301 125z" />
<glyph unicode="&#xe91c;" glyph-name="uniE036" d="M554 342v340h86v-340h-86zM512 170q140 0 241 101t101 241-101 241-241 101-241-101-101-241 101-241 241-101zM512 938q176 0 301-125t125-301-125-301-301-125-301 125-125 301 125 301 301 125zM384 342v340h86v-340h-86z" />
<glyph unicode="&#xe91d;" glyph-name="uniE037" d="M342 810l468-298-468-298v596z" />
<glyph unicode="&#xe91e;" glyph-name="uniE038" d="M426 320l256 192-256 192v-384zM512 938q176 0 301-125t125-301-125-301-301-125-301 125-125 301 125 301 301 125z" />
<glyph unicode="&#xe91f;" glyph-name="uniE039" d="M512 170q140 0 241 101t101 241-101 241-241 101-241-101-101-241 101-241 241-101zM512 938q176 0 301-125t125-301-125-301-301-125-301 125-125 301 125 301 301 125zM426 320v384l256-192z" />
<glyph unicode="&#xe920;" glyph-name="uniE03B" d="M86 342v84h340v-84h-340zM768 426h170v-84h-170v-172h-86v172h-170v84h170v172h86v-172zM598 768v-86h-512v86h512zM598 598v-86h-512v86h512z" />
<glyph unicode="&#xe921;" glyph-name="uniE03D" d="M726 768h212v-86h-128v-384q0-52-38-90t-90-38-90 38-38 90 38 90 90 38q16 0 44-8v350zM128 342v84h342v-84h-342zM640 598v-86h-512v86h512zM640 768v-86h-512v86h512z" />
<glyph unicode="&#xe922;" glyph-name="uniE03E" d="M854 512v170h-684v-170h512v86h86v-86h86zM298 170q52 0 90 38t38 90-38 90-90 38-90-38-38-90 38-90 90-38zM138 762l540 220 28-72-352-142h500q36 0 60-25t24-61v-512q0-34-24-59t-60-25h-684q-36 0-60 25t-24 59v512q0 60 52 80z" />
<glyph unicode="&#xe923;" glyph-name="uniE03F" d="M534 298v32q0 44-66 70t-126 26-126-26-66-70v-32h384zM342 694q-38 0-67-29t-29-67 29-67 67-29 67 29 29 67-29 67-67 29zM598 810q18 0 30-12t12-30v-512q0-18-12-30t-30-12h-512q-18 0-31 12t-13 30v512q0 18 13 30t31 12h512zM726 214v596h84v-596h-84zM896 810h86v-596h-86v596z" />
<glyph unicode="&#xe924;" glyph-name="uniE040" d="M726 298v172h84v-256h-512v-128l-170 170 170 170v-128h428zM298 726v-172h-84v256h512v128l170-170-170-170v128h-428z" />
<glyph unicode="&#xe925;" glyph-name="uniE041" d="M554 384h-64v170h-64v44l86 42h42v-256zM726 298v172h84v-256h-512v-128l-170 170 170 170v-128h428zM298 726v-172h-84v256h512v128l170-170-170-170v128h-428z" />
<glyph unicode="&#xe926;" glyph-name="uniE042" d="M512 810q142 0 242-100t100-240q0-142-101-242t-241-100-241 100-101 242h86q0-106 75-181t181-75 181 75 75 181-75 181-181 75v-172l-214 214 214 214v-172z" />
<glyph unicode="&#xe927;" glyph-name="uniE043" d="M632 452l134-134 88 88v-236h-236l88 88-134 134zM618 854h236v-236l-88 88-536-536-60 60 536 536zM452 632l-60-60-222 222 60 60z" />
<glyph unicode="&#xe928;" glyph-name="uniE044" d="M682 768h86v-512h-86v512zM256 256v512l362-256z" />
<glyph unicode="&#xe929;" glyph-name="uniE045" d="M406 512l362 256v-512zM256 768h86v-512h-86v512z" />
<glyph unicode="&#xe92a;" glyph-name="uniE046" d="M384 554v86h256v-76l-154-180h154v-86h-256v78l154 178h-154zM512 170q124 0 211 88t87 212-87 211-211 87-211-87-87-211 87-212 211-88zM512 854q160 0 272-113t112-271-112-271-272-113-272 113-112 271 112 271 272 113zM938 780l-54-66-196 166 54 64zM336 880l-196-164-54 64 196 164z" />
<glyph unicode="&#xe92b;" glyph-name="uniE047" d="M256 768h512v-512h-512v512z" />
<glyph unicode="&#xe92c;" glyph-name="uniE048" d="M854 426v86h-428v-86h428zM854 256v86h-172v-86h172zM598 256v86h-428v-86h428zM170 512v-86h172v86h-172zM854 854q34 0 59-26t25-60v-512q0-34-25-60t-59-26h-684q-34 0-59 26t-25 60v512q0 34 25 60t59 26h684z" />
<glyph unicode="&#xe92d;" glyph-name="uniE049" d="M512 598q34 0 60-26t26-60-26-60-60-26-60 26-26 60 26 60 60 26zM754 270q100 100 100 242t-100 242l-62-62q76-76 76-180 0-108-74-182zM512 342q70 0 120 50t50 120-50 120-120 50-120-50-50-120 50-120 120-50zM332 332q-76 76-76 180 0 108 74 182l-60 60q-100-100-100-242t100-242zM854 854q34 0 59-26t25-60v-512q0-34-25-60t-59-26h-684q-34 0-59 26t-25 60v512q0 34 25 60t59 26h684z" />
<glyph unicode="&#xe92e;" glyph-name="uniE04A" d="M512 406l256 192-256 192v-384zM854 938q34 0 59-25t25-59v-512q0-34-25-60t-59-26h-512q-34 0-60 26t-26 60v512q0 34 26 59t60 25h512zM170 768v-598h598v-84h-598q-34 0-59 25t-25 59v598h84z" />
<glyph unicode="&#xe92f;" glyph-name="uniE04B" d="M726 576l170 170v-468l-170 170v-150q0-18-13-30t-31-12h-512q-18 0-30 12t-12 30v428q0 18 12 30t30 12h512q18 0 31-12t13-30v-150z" />
<glyph unicode="&#xe930;" glyph-name="uniE04C" d="M140 938l756-756-54-54-136 136q-12-8-24-8h-512q-18 0-30 12t-12 30v428q0 18 12 30t30 12h32l-116 116zM896 746v-456l-478 478h264q18 0 31-12t13-30v-150z" />
<glyph unicode="&#xe931;" glyph-name="uniE04D" d="M214 640h170l214 214v-684l-214 214h-170v256zM790 512q0-118-108-172v344q108-54 108-172z" />
<glyph unicode="&#xe932;" glyph-name="uniE04E" d="M298 640h172l212 214v-684l-212 214h-172v256z" />
<glyph unicode="&#xe933;" glyph-name="uniE04F" d="M512 854v-180l-90 90zM182 896l714-714-54-54-88 88q-74-58-156-78v88q50 14 96 50l-182 182v-288l-214 214h-170v256h202l-202 202zM810 512q0 102-59 180t-153 106v88q130-28 214-133t84-241q0-96-44-178l-64 66q22 54 22 112zM704 512q0-18-2-26l-104 104v94q106-52 106-172z" />
<glyph unicode="&#xe934;" glyph-name="uniE050" d="M598 886q130-28 214-133t84-241-84-241-214-133v88q94 28 153 106t59 180-59 180-153 106v88zM704 512q0-120-106-172v344q106-52 106-172zM128 640h170l214 214v-684l-214 214h-170v256z" />
<glyph unicode="&#xe935;" glyph-name="uniE051" d="M854 256v384h-172v-384h172zM640 470v170h-470v-170h470zM640 256v170h-470v-170h470zM854 854q34 0 59-26t25-60v-512q0-34-25-60t-59-26h-684q-34 0-59 26t-25 60v512q0 34 25 60t59 26h684z" />
<glyph unicode="&#xe936;" glyph-name="uniE052" d="M618 448v128h86v-128h-86zM554 640v-256h172q18 0 30 12t12 30v172q0 18-12 30t-30 12h-172zM470 384v256h-64v-106h-86v106h-64v-256h64v86h86v-86h64zM810 896q34 0 60-26t26-60v-596q0-34-26-60t-60-26h-596q-36 0-61 26t-25 60v596q0 34 25 60t61 26h596z" />
<glyph unicode="&#xe937;" glyph-name="uniE053" d="M672 336h260v-68h-364v54l252 366h-250v68h354v-54zM212 442h166l-84 222zM260 756h70l192-488h-78l-40 104h-218l-40-104h-78zM438 198h198l-100-100zM638 826h-202l100 100z" />
<glyph unicode="&#xe938;" glyph-name="uniE055" d="M896 896q34 0 60-26t26-60v-512q0-34-26-59t-60-25h-170v84h170v512h-768v-512h170v-84h-170q-34 0-60 25t-26 59v512q0 34 26 60t60 26h768zM256 86l256 256 256-256h-512z" />
<glyph unicode="&#xe939;" glyph-name="uniE056" d="M564 376q0-14 20-14 10 0 14 4l8 10q4 8 4 12v86q-4 8-4 12t-9 9-13 5q-6 0-12-6l-8-8q-6-8-6-12v-86q6-8 6-12zM644 418q0-26-4-34l-12-26q-14-12-22-12-4 0-13-2t-13-2q-18 0-26 4-4 2-10 6t-10 6q-18 10-18 60v30q0 26 4 34l14 26q12 12 20 12 4 0 13 2t13 2q18 0 26-4 4-2 11-6t11-6 12-26q4-12 4-34v-30zM466 342h-40v140l-42-12v30l76 24h6v-182zM170 470q0 140 100 240t242 100v172l214-214-214-214v172q-104 0-180-75t-76-181 76-181 180-75 180 75 76 181h86q0-142-101-242t-241-100-241 100-101 242z" />
<glyph unicode="&#xe93a;" glyph-name="uniE057" d="M170 470q0 140 100 240t242 100v172l214-214-214-214v172q-104 0-180-75t-76-181 76-181 180-75 180 75 76 181h86q0-142-101-242t-241-100-241 100-101 242zM568 376q0-14 20-14 10 0 14 4l8 10q4 8 4 12v86q-4 8-4 12t-9 9-13 5q-6 0-12-6l-8-8q-4-8-4-12v-86q4-8 4-12zM652 418q0-26-4-34l-12-26q-14-12-22-12-4 0-13-2t-13-2q-14 0-46 16-4 2-12 26-6 18-6 34v30q0 22 6 34l12 26q14 12 22 12 4 0 12 2t12 2q18 0 26-4 4-2 11-6t11-6 12-26q4-12 4-34v-30zM426 448q30 0 30 26v8q-4 4-4 8t-8 4h-22q-4-4-8-4t-4-8v-8h-44q0 16 11 31t25 15q2 0 10 2t10 2q24 0 48-12 16-8 16-38v-14q-4-8-4-12 0-8-8-8-4 0-14-10 18-10 22-16 8-16 8-26 0-18-4-22-2-2-6-8t-6-8q-8-8-22-8-4 0-13-2t-13-2q-16 0-20 4-2 2-10 4t-12 4q-18 10-18 42h36v-8q4-4 4-8t8-4h22q4 4 8 4t4 8v22q-4 4-4 8t-8 4h-26v30h16z" />
<glyph unicode="&#xe93b;" glyph-name="uniE058" d="M500 444q-14-6-14-8l-4-6h-26l10 94h102v-30h-74l-4-38q4 0 4 4 0 2 3 3t3 3h16q16 0 22-6 2-2 8-6t8-6q18-18 18-46 0-18-4-22-2-2-6-10t-8-12q-16-16-46-16-18 0-22 4-2 2-9 4t-11 4q-18 10-18 38h34q0-20 26-20 8 0 12 4l10 8q4 8 4 12v26l-4 8-10 10q-8 4-12 4h-8zM170 470q0 140 100 240t242 100v172l214-214-214-214v172q-104 0-180-75t-76-181 76-181 180-75 180 75 76 181h86q0-142-101-242t-241-100-241 100-101 242z" />
<glyph unicode="&#xe93c;" glyph-name="uniE059" d="M564 376q0-14 20-14 10 0 14 4l8 10q4 8 4 12v86q-4 8-4 12t-9 9-13 5q-6 0-12-6l-8-8q-6-8-6-12v-86q6-8 6-12zM648 418q0-26-4-34l-12-26q-14-12-22-12-4 0-13-2t-13-2q-18 0-26 4-4 2-10 6t-10 6q-18 10-18 60v30q0 26 4 34l14 26q12 12 20 12 4 0 13 2t13 2q18 0 26-4 4-2 11-6t11-6 12-26q4-12 4-34v-30zM466 342h-40v140l-42-12v30l76 24h6v-182zM512 810q142 0 242-100t100-240q0-142-101-242t-241-100-241 100-101 242h86q0-106 76-181t180-75 180 75 76 181-76 181-180 75v-172l-214 214 214 214v-172z" />
<glyph unicode="&#xe93d;" glyph-name="uniE05A" d="M572 376q0-14 22-14 8 0 12 4l8 10q4 8 4 12v86q0 2-2 6t-2 6q0 4-8 9t-12 5q-8 0-14-6l-8-8q-4-8-4-12v-86q4-8 4-12zM652 418q0-26-4-34l-12-26q-14-12-22-12-4 0-13-2t-13-2q-14 0-46 16-4 2-12 26-6 18-6 34v30q0 22 6 34l12 26q14 12 22 12 4 0 12 2t12 2q18 0 26-4 4-2 11-6t11-6 12-26q4-12 4-34v-30zM426 448q30 0 30 26v8q-4 4-4 8t-8 4h-22q-4-4-8-4t-4-8v-8h-44q0 16 11 31t25 15q2 0 10 2t10 2q24 0 48-12 16-8 16-38v-14q-4-8-4-12 0-8-8-8-4 0-14-10 18-10 22-16 8-16 8-26 0-18-4-22-2-2-6-8t-6-8q-8-8-22-8-4 0-13-2t-13-2q-16 0-20 4-2 2-10 4t-12 4q-18 10-18 42h36v-8q4-4 4-8t8-4h22q4 4 8 4t4 8v22q-4 4-4 8t-8 4h-26v30h16zM512 810q142 0 242-100t100-240q0-142-101-242t-241-100-241 100-101 242h86q0-106 76-181t180-75 180 75 76 181-76 181-180 75v-172l-214 214 214 214v-172z" />
<glyph unicode="&#xe93e;" glyph-name="uniE05B" d="M504 444q-14-6-14-8l-4-6h-30l10 94h102v-30h-74l-4-38q4 0 4 4 0 2 3 3t3 3h16q16 0 22-6 2-2 8-6t8-6q18-18 18-46 0-18-4-22-2-2-6-10t-8-12-9-7-7-5q-4-4-26-4-18 0-22 4-2 2-9 4t-11 4q-18 10-18 38h34q0-20 26-20 8 0 12 4l10 8q4 8 4 12v26l-4 8-10 10q-8 4-12 4h-8zM512 810q142 0 242-100t100-240q0-142-101-242t-241-100-241 100-101 242h86q0-106 76-181t180-75 180 75 76 181-76 181-180 75v-172l-214 214 214 214v-172z" />
<glyph unicode="&#xe93f;" glyph-name="uniE05C" d="M682 598v-86h-128v-128h-84v128h-128v86h128v128h84v-128h128zM896 298v512h-768v-512h768zM896 896q34 0 60-25t26-61l-2-512q0-34-25-59t-59-25h-214v-86h-340v86h-214q-36 0-61 25t-25 59v512q0 36 25 61t61 25h768z" />
<glyph unicode="&#xe940;" glyph-name="uniE05D" d="M896 534v42q0 28-18 46t-46 18h-150v-256h64v86h50l36-86h64l-38 90q38 18 38 60zM538 384l76 256h-64l-44-146-42 146h-64l74-256h64zM342 448v128q0 28-19 46t-45 18h-150v-256h150q26 0 45 18t19 46zM896 896q36 0 61-25t25-61v-596q0-34-25-60t-61-26h-768q-36 0-61 26t-25 60v596q0 36 25 61t61 25h768zM192 576h86v-128h-86v128zM746 576h86v-42h-86v42z" />
<glyph unicode="&#xe941;" glyph-name="uniE05E" d="M874 426v214h-52v-192h-48v150h-54v-150h-48v192h-54v-214q0-18 13-30t31-12h170q18 0 30 12t12 30zM576 586v54h-170v-256h170v54h-106v46h106v54h-106v48h106zM362 384v256h-52v-150l-108 150h-52v-256h52v150l110-150h50zM854 854q36 0 60-25t24-61v-512q0-36-24-61t-60-25h-684q-36 0-60 25t-24 61v512q0 36 24 61t60 25h684z" />
<glyph unicode="&#xe942;" glyph-name="uniE05F" d="M598 426l212-128-212-128v256zM170 426h342v-84h-342v84zM170 768h512v-86h-512v86zM170 598h512v-86h-512v86z" />
<glyph unicode="&#xe943;" glyph-name="uniE060" d="M448 384l-96 128-74-96-54 64-74-96h298zM512 640v-256q0-34-26-60t-60-26h-256q-34 0-59 26t-25 60v256q0 34 25 60t59 26h256q34 0 60-26t26-60zM598 298v86h340v-86h-340zM938 726v-86h-340v86h340zM938 470h-340v84h340v-84z" />
<glyph unicode="&#xe944;" glyph-name="uniE061" d="M170 512q0 140 101 241t241 101 241-101 101-241-101-241-241-101-241 101-101 241z" />
<glyph unicode="&#xe945;" glyph-name="uniE062" d="M726 842q112-28 184-120t72-210-72-210-184-120v88q76 26 123 92t47 150-47 150-123 92v88zM42 512q0 140 101 241t241 101 241-101 101-241-101-241-241-101-241 101-101 241z" />
<glyph unicode="&#xe946;" glyph-name="uniE063" d="M342 384q0 52 38 90t90 38q14 0 42-8v264h214v-86h-128v-300q0-52-38-89t-90-37-90 38-38 90zM896 214v596h-768v-596h768zM896 896q34 0 60-26t26-60v-596q0-34-26-60t-60-26h-768q-34 0-60 26t-26 60v596q0 34 26 60t60 26h768z" />
<glyph unicode="&#xe947;" glyph-name="uniE064" d="M682 342l-256 138v-278zM938 512v-342q0-34-25-59t-59-25h-684q-34 0-59 25t-25 59v342q0 34 25 60t59 26h684q34 0 59-26t25-60zM768 938v-84h-512v84h512zM854 682h-684v86h684v-86z" />
<glyph unicode="&#xe948;" glyph-name="uniE065" d="M918 534l64-64-298-300-194 192 64 64 130-128zM86 342v84h340v-84h-340zM598 768v-86h-512v86h512zM598 598v-86h-512v86h512z" />
<glyph unicode="&#xe949;" glyph-name="uniE066" d="M1024 256l-192-192-64 64 128 128-128 128 64 64zM554 598h128v-86h-128v-128h-84v128h-128v86h128v128h84v-128zM896 896q34 0 60-25t26-61v-340h-86v340h-768v-512h640v-84h-86v-86h-340v86h-214q-36 0-61 25t-25 59v512q0 36 25 61t61 25h768z" />
<glyph unicode="&#xe94a;" glyph-name="uniE067" d="M682 598v-86h-340v86h340zM896 298v512h-768v-512h768zM896 896q34 0 60-25t26-61l-2-512q0-34-25-59t-59-25h-214v-86h-340v86h-214q-36 0-61 25t-25 59v512q0 36 25 61t61 25h768z" />
<glyph unicode="&#xe94b;" glyph-name="uniE068" d="M938 512q0-164-110-286t-272-138v86q126 16 212 113t86 225-86 225-212 113v86q162-16 272-138t110-286zM242 182l60 60q74-56 168-68v-86q-126 12-228 94zM174 470q12-94 68-166l-60-62q-82 102-94 228h86zM242 722q-56-74-68-168h-86q12 126 94 228zM470 850q-94-12-168-68l-60 60q102 82 228 94v-86zM556 606l126-94q-126-94-256-192z" />
<glyph unicode="&#xe94c;" glyph-name="uniE069" d="M810 256v426h-596v-426h596zM810 854q36 0 61-26t25-60v-512q0-34-26-60t-60-26h-596q-36 0-61 26t-25 60v512q0 34 25 60t61 26h596z" />
<glyph unicode="&#xe94d;" glyph-name="uniE06A" d="M854 384v256h-54v-150l-106 150h-54v-256h54v150l108-150h52zM534 384v256h-64v-256h64zM384 534v42q0 28-18 46t-46 18h-150v-256h64v86h86q28 0 46 19t18 45zM854 854q36 0 60-25t24-61v-512q0-36-24-61t-60-25h-684q-36 0-60 25t-24 61v512q0 36 24 61t60 25h684zM234 576h86v-42h-86v42z" />
<glyph unicode="&#xe94e;" glyph-name="uniE06B" d="M896 214v256h-384v-256h384zM896 896q34 0 60-26t26-60v-596q0-34-26-60t-60-26h-768q-34 0-60 26t-26 60v596q0 34 26 60t60 26h768z" />
<glyph unicode="&#xe94f;" glyph-name="uniE06C" d="M896 214v128h-768v-128h768zM896 896q34 0 60-26t26-60v-596q0-34-26-60t-60-26h-768q-34 0-60 26t-26 60v596q0 34 26 60t60 26h768z" />
<glyph unicode="&#xe950;" glyph-name="uniE06D" d="M512 726v84h-384v-84h384zM512 554v86h-384v-86h384zM896 896q34 0 60-26t26-60v-596q0-34-26-60t-60-26h-768q-34 0-60 26t-26 60v596q0 34 26 60t60 26h768z" />
<glyph unicode="&#xe951;" glyph-name="uniE06E" d="M512 512v298h-384v-298h384zM896 896q34 0 60-26t26-60v-596q0-34-26-60t-60-26h-768q-34 0-60 26t-26 60v596q0 34 26 60t60 26h768z" />
<glyph unicode="&#xe952;" glyph-name="uniE06F" d="M640 790v-236h234zM938 598v-342q0-34-25-59t-59-25l-684-2q-34 0-59 26t-25 60v512q0 34 25 60t59 26h512z" />
<glyph unicode="&#xe953;" glyph-name="uniE070" d="M598 470v84h-128v128h-86v-128h-128v-84h128v-128h86v128h128zM726 576l170 170v-468l-170 170v-150q0-18-13-30t-31-12h-512q-18 0-30 12t-12 30v428q0 18 12 30t30 12h512q18 0 31-12t13-30v-150z" />
<glyph unicode="&#xe954;" glyph-name="uniE071" d="M896 342v468h-768v-468h768zM896 896q34 0 60-26t26-60v-596q0-34-26-60t-60-26h-768q-34 0-60 26t-26 60v596q0 34 26 60t60 26h768z" />
<glyph unicode="&#xe955;" glyph-name="uniE072" d="M776 384l-84 128 84 128h-72l-86-128v128h-64v-256h64v128l86-128h72zM470 384v256h-64v-128h-64v128h-64v-192h128v-64h64zM810 896q36 0 61-26t25-60v-596q0-34-26-60t-60-26h-596q-36 0-61 26t-25 60v596q0 34 26 60t60 26h596z" />
<glyph unicode="&#xe956;" glyph-name="uniE7EE" d="M768 384v-86h-86v86h86zM768 554v-84h-86v84h86zM854 214v426h-342v-86h86v-84h-86v-86h86v-86h-86v-84h342zM426 726v84h-84v-84h84zM426 554v86h-84v-86h84zM426 384v86h-84v-86h84zM426 214v84h-84v-84h84zM256 726v84h-86v-84h86zM256 554v86h-86v-86h86zM256 384v86h-86v-86h86zM256 214v84h-86v-84h86zM512 726h426v-598h-852v768h426v-170z" />
<glyph unicode="&#xe957;" glyph-name="uniE551" d="M282 564q96-186 282-282l94 94q20 20 44 10 72-24 152-24 18 0 30-12t12-30v-150q0-18-12-30t-30-12q-300 0-513 213t-213 513q0 18 12 30t30 12h150q18 0 30-12t12-30q0-80 24-152 8-26-10-44z" />
<glyph unicode="&#xe958;" glyph-name="uniE0B1" d="M512 640q-104 0-196-30v-132q0-30-24-40-64-30-114-78-12-12-30-12t-30 12l-106 106q-12 12-12 30t12 30q210 200 500 200t500-200q12-12 12-30t-12-30l-106-106q-12-12-30-12t-30 12q-50 48-114 78-24 10-24 38v132q-100 32-196 32z" />
<glyph unicode="&#xe959;" glyph-name="uniE0B2" d="M384 810h426v-426h-84v282l-496-496-60 60 496 496h-282v84z" />
<glyph unicode="&#xe95a;" glyph-name="uniE252" d="M320 682l192 192 192-192h-150v-272l-256-256-60 60 232 230v238h-150zM726 154l-146 144 60 60 146-144z" />
<glyph unicode="&#xe95b;" glyph-name="uniE0B4" d="M836 726l60-60-384-384-298 298v-196h-86v342h342v-86h-196l238-238z" />
<glyph unicode="&#xe95c;" glyph-name="uniE0B5" d="M854 794l-496-496h282v-84h-426v426h84v-282l496 496z" />
<glyph unicode="&#xe95d;" glyph-name="uniE0B6" d="M426 854l-98-98 226-226v-360h-84v324l-202 202-98-98v256h256zM598 854h256v-256l-98 98-124-124-60 60 124 124z" />
<glyph unicode="&#xe95e;" glyph-name="uniE0B7" d="M768 682v86h-512v-86h512zM598 426v86h-342v-86h342zM256 640v-86h512v86h-512zM854 938q34 0 59-25t25-59v-512q0-34-25-60t-59-26h-598l-170-170v768q0 34 25 59t59 25h684z" />
<glyph unicode="&#xe95f;" glyph-name="uniE0B8" d="M298 726h598v-86h-598v86zM128 298v86h598v-86h-598zM214 470v84h596v-84h-596z" />
<glyph unicode="&#xe960;" glyph-name="uniE0B9" d="M768 682v86h-512v-86h512zM768 554v86h-512v-86h512zM768 426v86h-512v-86h512zM938 854v-768l-170 170h-598q-34 0-59 26t-25 60v512q0 34 25 59t59 25h684q34 0 59-25t25-59z" />
<glyph unicode="&#xe961;" glyph-name="uniE0BA" d="M726 298v64q0 48-73 78t-141 30-141-30-73-78v-64h428zM512 736q-40 0-68-28t-28-68 28-68 68-28 68 28 28 68-28 68-68 28zM854 854q34 0 59-26t25-60v-512q0-34-25-60t-59-26h-684q-34 0-59 26t-25 60v512q0 34 25 60t59 26h684zM170 0v86h684v-86h-684zM854 1024v-86h-684v86h684z" />
<glyph unicode="&#xe962;" glyph-name="uniE0BB" d="M854 362q18 0 30-12t12-30v-150q0-18-12-30t-30-12q-300 0-513 213t-213 513q0 18 12 30t30 12h150q18 0 30-12t12-30q0-80 24-152 8-26-10-44l-94-94q94-184 282-282l94 94q18 18 44 10 72-24 152-24zM854 810v44h-44v-44h44zM768 896h128v-128h-86v-86h-42v214zM640 810v-128h-128v44h86v42h-86v128h128v-42h-86v-44h86zM726 896v-214h-44v214h44z" />
<glyph unicode="&#xe963;" glyph-name="uniE0BC" d="M512 982q34 0 60-26t26-60-26-60-60-26-60 26-26 60 26 60 60 26zM512 726q34 0 60-26t26-60-26-60-60-26-60 26-26 60 26 60 60 26zM768 726q34 0 60-26t26-60-26-60-60-26-60 26-26 60 26 60 60 26zM768 470q34 0 60-26t26-60-26-60-60-26-60 26-26 60 26 60 60 26zM512 470q34 0 60-26t26-60-26-60-60-26-60 26-26 60 26 60 60 26zM768 810q-34 0-60 26t-26 60 26 60 60 26 60-26 26-60-26-60-60-26zM256 470q34 0 60-26t26-60-26-60-60-26-60 26-26 60 26 60 60 26zM256 726q34 0 60-26t26-60-26-60-60-26-60 26-26 60 26 60 60 26zM256 982q34 0 60-26t26-60-26-60-60-26-60 26-26 60 26 60 60 26zM512 214q34 0 60-26t26-60-26-60-60-26-60 26-26 60 26 60 60 26z" />
<glyph unicode="&#xe964;" glyph-name="uniE554" d="M854 682v86l-342-214-342 214v-86l342-212zM854 854q34 0 59-26t25-60v-512q0-34-25-60t-59-26h-684q-34 0-59 26t-25 60v512q0 34 25 60t59 26h684z" />
<glyph unicode="&#xe965;" glyph-name="uniE8AF" d="M726 512q0-18-13-30t-31-12h-426l-170-172v598q0 18 12 30t30 12h554q18 0 31-12t13-30v-384zM896 768q18 0 30-12t12-30v-640l-170 170h-470q-18 0-30 12t-12 30v86h554v384h86z" />
<glyph unicode="&#xe966;" glyph-name="uniE0C3" d="M682 298h128l-170-170-170 170h128v300h84v-300zM384 896l170-170h-128v-300h-84v300h-128z" />
<glyph unicode="&#xe967;" glyph-name="uniE0C4" d="M512 806l-98-96-60 60 158 158 242-242q76-76 94-183t-26-201l-310 308v196zM512 188v206l-204 204q-52-68-52-154 0-104 76-180t180-76zM882 134l14-16-54-54-116 116q-94-76-214-76-142 0-242 100-92 94-99 225t75 231l-118 118 54 54q598-598 700-698z" />
<glyph unicode="&#xe968;" glyph-name="uniE0C6" d="M642 586q40 40 40 96 0 70-50 121t-120 51-120-51-50-121h84q0 34 26 60t60 26 60-26 26-60-26-60l-52-54q-50-54-50-120v-22h84q0 68 50 122zM554 256v86h-84v-86h84zM810 938q34 0 60-25t26-59v-598q0-34-26-60t-60-26h-170l-128-128-128 128h-170q-36 0-61 26t-25 60v598q0 34 25 59t61 25h596z" />
<glyph unicode="&#xe969;" glyph-name="uniE0C7" d="M500 534q218-216 354-352l-54-54-144 142q-32-48-68-94t-56-68l-20-22q-12 14-32 37t-72 92-91 134-71 147-32 144q0 22 8 66l-136 136 54 54 356-356zM512 746q-46 0-78-36l-138 136q88 92 216 92 124 0 211-87t87-211q0-96-72-234l-154 156q34 30 34 78 0 44-31 75t-75 31z" />
<glyph unicode="&#xe96a;" glyph-name="uniE8B4" d="M512 534q44 0 75 31t31 75-31 75-75 31-75-31-31-75 31-75 75-31zM512 938q124 0 211-87t87-211q0-62-31-142t-75-150-87-131-73-97l-32-34q-12 14-32 37t-72 92-91 134-71 147-32 144q0 124 87 211t211 87z" />
<glyph unicode="&#xe96b;" glyph-name="uniE0C9" d="M768 682v86h-512v-86h512zM768 554v86h-512v-86h512zM768 426v86h-512v-86h512zM854 938q34 0 59-25t25-59v-512q0-34-25-60t-59-26h-598l-170-170v768q0 34 25 59t59 25h684z" />
<glyph unicode="&#xe96c;" glyph-name="uniE0CA" d="M854 938q34 0 59-25t25-59v-512q0-34-25-60t-59-26h-598l-170-170v768q0 34 25 59t59 25h684z" />
<glyph unicode="&#xe96d;" glyph-name="uniE0CB" d="M854 342v512h-684v-598l86 86h598zM854 938q34 0 59-25t25-59v-512q0-34-25-60t-59-26h-598l-170-170v768q0 34 25 59t59 25h684z" />
<glyph unicode="&#xe96e;" glyph-name="uniE1CE" d="M156 858l746-744-56-56-80 82q-24-12-40-12h-428q-34 0-59 26t-25 60v478l-112 112zM810 810v-498l-484 484 100 100h300q34 0 59-26t25-60z" />
<glyph unicode="&#xe96f;" glyph-name="uniE0CE" d="M140 918l42-44 714-714-54-54-320 322h-2l-8-2q-34 0-60 26t-26 60l2 8-68 68q-18-36-18-76 0-98 84-148l-42-74q-58 34-93 93t-35 129q0 76 40 138l-60 62q-66-92-66-200 0-92 46-171t124-125l-42-74q-98 56-155 155t-57 215q0 148 88 262l-88 90zM512 854q-86 0-160-40l-62 62q100 62 222 62 176 0 301-125t125-301q0-122-62-222l-64 62q42 78 42 160 0 140-101 241t-241 101zM750 416l-70 70q2 8 2 26 0 70-50 120t-120 50q-18 0-26-2l-70 70q44 18 96 18 106 0 181-75t75-181q0-52-18-96z" />
<glyph unicode="&#xe970;" glyph-name="uniE0CF" d="M762 426q-16 42-16 86t16 86h70l64 84-84 86q-88-66-118-170-12-42-12-86t12-86q30-104 118-170l84 86-64 84h-70zM598 256v42q0 58-88 95t-168 37-168-37-88-95v-42h512zM342 768q-52 0-90-38t-38-90 38-90 90-38 90 38 38 90-38 90-90 38zM938 896q34 0 60-26t26-60v-596q0-34-26-60t-60-26h-852q-34 0-60 26t-26 60v596q0 34 26 60t60 26h852z" />
<glyph unicode="&#xe971;" glyph-name="uniE0D0" d="M938 512v256h-340v-256h340zM598 256v42q0 58-88 95t-168 37-168-37-88-95v-42h512zM342 768q-52 0-90-38t-38-90 38-90 90-38 90 38 38 90-38 90-90 38zM938 896q34 0 60-26t26-60v-596q0-34-26-60t-60-26h-852q-34 0-60 26t-26 60v596q0 34 26 60t60 26h852zM896 682l-128-84-128 84v44l128-86 128 86v-44z" />
<glyph unicode="&#xe972;" glyph-name="uniE0D1" d="M274 606q-148 148-152 150l60 62 152-152zM554 938v-212h-84v212h84zM902 756l-152-150-60 60 152 152zM1012 312q12-12 12-30t-12-30l-106-106q-12-12-30-12t-30 12q-56 52-114 80-24 10-24 38v132q-92 30-196 30t-196-30v-132q0-30-24-40-64-30-114-78-12-12-30-12t-30 12l-106 106q-12 12-12 30t12 30q210 200 500 200t500-200z" />
<glyph unicode="&#xe973;" glyph-name="uniE0D2" d="M640 170v342h-256v-342h256zM634 596q20 0 34-14t14-34v-414q0-20-14-34t-34-14h-244q-20 0-34 14t-14 34v414q0 20 14 35t34 15zM512 982q192 0 330-138l-60-60q-112 112-270 112t-270-112l-60 60q138 138 330 138zM298 722q88 88 214 88t214-88l-62-60q-62 62-152 62t-152-62z" />
<glyph unicode="&#xe974;" glyph-name="uniE0D5" d="M810 726h-596v-428h596v428zM44 726q0 34 25 59t59 25h768q34 0 60-25t26-59v-428q0-34-26-59t-60-25h-768q-34 0-60 25t-26 59z" />
<glyph unicode="&#xe975;" glyph-name="uniE32C" d="M726 214v596h-428v-596h428zM726 980q34 0 59-25t25-59v-768q0-34-25-60t-59-26h-428q-34 0-59 26t-25 60v768q0 34 25 60t59 26z" />
<glyph unicode="&#xe976;" glyph-name="uniE0D7" d="M768 854l170-172h-128v-298q0-70-50-120t-120-50-120 50-50 120v298q0 34-26 60t-60 26-60-26-26-60v-298h128l-170-170-170 170h128v298q0 70 50 121t120 51 120-51 50-121v-298q0-34 26-60t60-26 60 26 26 60v298h-128z" />
<glyph unicode="&#xe977;" glyph-name="uniE625" d="M726 554v86h-86v-86h86zM554 554v86h-84v-86h84zM384 554v86h-86v-86h86zM854 938q34 0 59-25t25-59v-512q0-34-25-60t-59-26h-598l-170-170v768q0 34 25 59t59 25h684z" />
<glyph unicode="&#xe978;" glyph-name="uniE0D9" d="M790 384q62 0 105 44t43 106-43 105-105 43-106-43-44-105 44-106 106-44zM234 384q62 0 106 44t44 106-44 105-106 43-105-43-43-105 43-106 105-44zM790 768q98 0 166-68t68-166-68-167-166-69h-556q-98 0-166 69t-68 167 68 166 166 68 167-68 69-166q0-86-54-150h192q-54 64-54 150 0 98 69 166t167 68z" />
<glyph unicode="&#xe979;" glyph-name="uniE0DA" d="M298 426q34 0 60 26t26 60-26 60-60 26-59-26-25-60 25-60 59-26zM540 598h442v-172h-86v-170h-170v170h-186q-26-76-92-123t-150-47q-106 0-181 75t-75 181 75 181 181 75q84 0 150-47t92-123z" />
<glyph unicode="&#xe97a;" glyph-name="uniE0DB" d="M810 982q34 0 60-26t26-60v-768q0-34-26-60t-60-26h-426q-34 0-60 26t-26 60v128h86v-86h426v684h-426v-86h-86v128q0 34 26 60t60 26h426zM554 674l-170-170 170-172-42-42-170 170-172-170-42 42 170 172-170 170 42 42 172-170 170 170z" />
<glyph unicode="&#xe97b;" glyph-name="uniE0DC" d="M406 554v64q0 24-19 40t-45 16-45-16-19-40v-64h128zM460 554q20 0 36-16t16-38v-150q0-20-17-36t-39-16h-234q-20 0-36 17t-16 39v150q0 20 16 35t36 15v64q0 44 37 76t83 32 82-32 36-76v-64zM810 982q34 0 60-26t26-60v-768q0-34-26-60t-60-26h-426q-34 0-60 26t-26 60v128h86v-86h426v684h-426v-86h-86v128q0 34 26 60t60 26h426z" />
<glyph unicode="&#xe97c;" glyph-name="uniE0DD" d="M598 170v684h-428v-684h428zM598 982q34 0 59-26t25-60v-768q0-34-25-60t-59-26h-428q-34 0-59 26t-25 60v768q0 34 25 60t59 26h428zM768 606q40-42 40-94t-40-90l-42 44q36 50 0 98zM858 696q80-76 80-183t-80-181l-44 44q58 62 58 141t-58 135z" />
<glyph unicode="&#xe97d;" glyph-name="uniE0DE" d="M810 982q34 0 60-26t26-60v-768q0-34-26-60t-60-26h-426q-34 0-60 26t-26 60v128h86v-86h426v684h-426v-86h-86v128q0 34 26 60t60 26h426zM342 426q34 0 59 26t25 60-25 60-59 26-60-26-26-60 26-60 60-26zM504 490l46-38q8-8 4-12l-42-74q-4-4-12-4l-56 22q-28-18-38-22l-10-54q-10-10-12-10h-86q-4 0-7 4t-1 6l-8 54q-10 4-38 22l-60-18q-4-4-14 6l-42 72q0 8 4 16l48 34v44l-48 34q-8 8-4 12l42 74q4 4 14 4l54-22q26 18 40 22l8 54q10 10 12 10h86q12 0 12-10l10-54q10-4 38-22l56 18q4 2 12-6l42-72q0-8-4-12l-46-34v-44z" />
<glyph unicode="&#xe97e;" glyph-name="uniE0DF" d="M426 512h-84l170 170 170-170h-84v-170h-172v170zM896 212v600h-768v-600h768zM896 896q36 0 61-25t25-61v-596q0-36-25-61t-61-25h-768q-36 0-61 25t-25 61v596q0 36 25 61t61 25h768z" />
<glyph unicode="&#xe97f;" glyph-name="uniE0E0" d="M896 234v492q-66 20-150 20-130 0-234-64v-490q104 64 234 64 78 0 150-22zM746 832q152 0 236-64v-622q0-8-7-15t-15-7q-6 0-10 2-82 44-204 44-130 0-234-64-86 64-234 64-108 0-204-46-2 0-5-1t-5-1q-8 0-15 6t-7 14v626q86 64 236 64 148 0 234-64 86 64 234 64z" />
<glyph unicode="&#xe980;" glyph-name="uniE0E1" d="M512 554l342 214h-684zM854 256v426l-342-212-342 212v-426h684zM854 854q34 0 59-26t25-60v-512q0-34-25-60t-59-26h-684q-34 0-59 26t-25 60v512q0 34 25 60t59 26h684z" />
<glyph unicode="&#xe981;" glyph-name="uniE0E2" d="M554 406l172 160-172 160v-92q-210-30-256-250 86 116 256 116v-94zM854 256h170v-86h-1024v86h170q-36 0-60 25t-24 61v426q0 36 24 61t60 25h684q34 0 59-25t25-61v-426q0-34-25-60t-59-26z" />
<glyph unicode="&#xe982;" glyph-name="uniE0E3" d="M298 384q58 80 156 104l-68 68q-64-62-88-172zM102 950l842-842-54-54-116 116h-774v86h170q-36 0-60 25t-24 59v428q0 38 28 62l-66 66zM938 340q0-50-44-74l-236 236 68 64-172 158v-90q-4-2-11-2t-11-2l-224 222h546q34 0 59-24t25-60v-428zM906 256h118v-86h-34z" />
<glyph unicode="&#xe983;" glyph-name="uniE0E4" d="M128 666l60 60 324-324 238 238h-196v86h342v-342h-86v196l-298-298z" />
<glyph unicode="&#xe984;" glyph-name="uniE0E5" d="M170 594q176 0 300-124t124-300h-122q0 124-89 213t-213 89v122zM170 834q274 0 469-195t195-469h-120q0 226-159 385t-385 159v120zM170 264q0 38 27 65t67 27 66-26 26-66-27-67-65-27q-40 0-67 27t-27 67z" />
<glyph unicode="&#xe985;" glyph-name="uniE0E6" d="M512 384q52 0 90 38t38 90-38 90-90 38-90-38-38-90 38-90 90-38zM512 938q176 0 301-125t125-301v-62q0-64-43-108t-105-44q-78 0-126 64-64-64-152-64t-151 63-63 151 63 151 151 63 151-63 63-151v-62q0-26 19-46t45-20 45 20 19 46v62q0 140-101 241t-241 101-241-101-101-241 101-241 241-101h214v-84h-214q-176 0-301 125t-125 301 125 301 301 125z" />
<glyph unicode="&#xe986;" glyph-name="uniE145" d="M810 470h-256v-256h-84v256h-256v84h256v256h84v-256h256v-84z" />
<glyph unicode="&#xe987;" glyph-name="uniE146" d="M726 470v84h-172v172h-84v-172h-172v-84h172v-172h84v172h172zM810 896q34 0 60-26t26-60v-596q0-34-26-60t-60-26h-596q-36 0-61 26t-25 60v596q0 34 25 60t61 26h596z" />
<glyph unicode="&#xe988;" glyph-name="uniE147" d="M726 470v84h-172v172h-84v-172h-172v-84h172v-172h84v172h172zM512 938q176 0 301-125t125-301-125-301-301-125-301 125-125 301 125 301 301 125z" />
<glyph unicode="&#xe989;" glyph-name="uniE3BA" d="M512 170q140 0 241 101t101 241-101 241-241 101-241-101-101-241 101-241 241-101zM512 938q176 0 301-125t125-301-125-301-301-125-301 125-125 301 125 301 301 125zM554 726v-172h172v-84h-172v-172h-84v172h-172v84h172v172h84z" />
<glyph unicode="&#xe98a;" glyph-name="uniE149" d="M218 810h588l-40 44h-512zM512 278l234 234h-148v86h-172v-86h-148zM876 800q20-24 20-54v-532q0-34-26-60t-60-26h-596q-34 0-60 26t-26 60v532q0 30 20 54l58 72q20 24 50 24h512q30 0 50-24z" />
<glyph unicode="&#xe98b;" glyph-name="uniE14A" d="M810 358l-152 154 152 154-60 60-152-154-154 154-60-60 154-154-154-154 60-60 154 154 152-154zM938 896q34 0 60-26t26-60v-596q0-34-26-60t-60-26h-640q-40 0-68 38l-230 346 230 346q28 38 68 38h640z" />
<glyph unicode="&#xe98c;" glyph-name="uniE14B" d="M512 170q140 0 241 101t101 241q0 120-72 210l-480-480q90-72 210-72zM170 512q0-120 72-210l480 480q-90 72-210 72-140 0-241-101t-101-241zM512 938q176 0 301-125t125-301-125-301-301-125-301 125-125 301 125 301 301 125z" />
<glyph unicode="&#xe98d;" glyph-name="uniE5CD" d="M810 750l-238-238 238-238-60-60-238 238-238-238-60 60 238 238-238 238 60 60 238-238 238 238z" />
<glyph unicode="&#xe98e;" glyph-name="uniE14D" d="M810 128v598h-468v-598h468zM810 810q34 0 60-25t26-59v-598q0-34-26-60t-60-26h-468q-34 0-60 26t-26 60v598q0 34 26 59t60 25h468zM682 982v-86h-512v-598h-84v598q0 34 25 60t59 26h512z" />
<glyph unicode="&#xe98f;" glyph-name="uniE14E" d="M810 896h128v-42l-298-300-86 86zM512 490q22 0 22 22t-22 22-22-22 22-22zM256 170q34 0 60 25t26 61-26 61-60 25-60-25-26-61 26-61 60-25zM256 682q34 0 60 25t26 61-26 61-60 25-60-25-26-61 26-61 60-25zM412 698l526-528v-42h-128l-298 298-100-100q14-30 14-70 0-70-50-120t-120-50-120 50-50 120 50 120 120 50q40 0 70-14l100 100-100 100q-30-14-70-14-70 0-120 50t-50 120 50 120 120 50 120-50 50-120q0-40-14-70z" />
<glyph unicode="&#xe990;" glyph-name="uniE14F" d="M810 170v684h-84v-128h-428v128h-84v-684h596zM512 938q-18 0-30-12t-12-30 12-30 30-12 30 12 12 30-12 30-30 12zM810 938q34 0 60-25t26-59v-684q0-34-26-59t-60-25h-596q-34 0-60 25t-26 59v684q0 34 26 59t60 25h178q14 38 46 62t74 24 74-24 46-62h178z" />
<glyph unicode="&#xe991;" glyph-name="uniE3C9" d="M884 724l-78-78-160 160 78 78q12 12 30 12t30-12l100-100q12-12 12-30t-12-30zM128 288l472 472 160-160-472-472h-160v160z" />
<glyph unicode="&#xe992;" glyph-name="uniE151" d="M512 470l352 220-352 206-352-206zM938 682v-426q0-34-25-60t-59-26h-684q-34 0-59 26t-25 60v426q0 50 40 74l386 226 386-226q40-24 40-74z" />
<glyph unicode="&#xe993;" glyph-name="uniE152" d="M256 470v84h512v-84h-512zM128 768h768v-86h-768v86zM426 256v86h172v-86h-172z" />
<glyph unicode="&#xe994;" glyph-name="uniE3A0" d="M614 768h240v-426h-300l-16 84h-240v-298h-84v726h384z" />
<glyph unicode="&#xe995;" glyph-name="uniE154" d="M512 682v172l342-342-342-342v172h-342v340h342z" />
<glyph unicode="&#xe996;" glyph-name="uniE155" d="M592 232q28 0 56 37t36 113q-60-16-92-54t-32-64q0-14 10-23t22-9zM196 730l-74 72q20 24 36 40 54 54 116 54 38 0 73-30t35-92q0-60-56-140-56-78-78-150-12-34-7-58t21-24q18 0 48 36 44 44 98 116 96 120 210 120 84 0 125-55t47-123h106v-106h-104q-12-138-74-200t-128-62q-56 0-96 39t-40 93q0 66 60 138t170 92q-2 16-3 22t-6 19-12 19-21 11-34 5q-56 0-174-146-34-42-47-57t-37-35-46-26q-70-22-120 26t-50 120q0 30 11 66t29 70 34 61 31 49 17 24q34 56 12 64-14 6-72-52z" />
<glyph unicode="&#xe997;" glyph-name="uniE156" d="M810 384v426h-598v-426h172q0-52 38-90t90-38 90 38 38 90h170zM810 896q34 0 60-25t26-61v-596q0-34-26-60t-60-26h-598q-36 0-60 25t-24 61v596q0 36 24 61t60 25h598z" />
<glyph unicode="&#xe998;" glyph-name="uniE250" d="M726 726q88 0 150-63t62-151-62-151-150-63h-172v82h172q54 0 93 39t39 93-39 93-93 39h-172v82h172zM342 470v84h340v-84h-340zM166 512q0-54 39-93t93-39h172v-82h-172q-88 0-150 63t-62 151 62 151 150 63h172v-82h-172q-54 0-93-39t-39-93z" />
<glyph unicode="&#xe999;" glyph-name="uniE15A" d="M786 572l152 154v-384h-384l156 154q-96 80-220 80-112 0-201-65t-123-169l-100 32q44 136 161 222t263 86q170 0 296-110z" />
<glyph unicode="&#xe99a;" glyph-name="uniE15B" d="M810 470h-596v84h596v-84z" />
<glyph unicode="&#xe99b;" glyph-name="uniE644" d="M726 470v84h-428v-84h428zM512 938q176 0 301-125t125-301-125-301-301-125-301 125-125 301 125 301 301 125z" />
<glyph unicode="&#xe99c;" glyph-name="uniE15D" d="M512 170q140 0 241 101t101 241-101 241-241 101-241-101-101-241 101-241 241-101zM512 938q176 0 301-125t125-301-125-301-301-125-301 125-125 301 125 301 301 125zM298 554h428v-84h-428v84z" />
<glyph unicode="&#xe99d;" glyph-name="uniE15E" d="M426 640q208-30 321-159t149-311q-154 218-470 218v-174l-298 298 298 298v-170z" />
<glyph unicode="&#xe99e;" glyph-name="uniE15F" d="M554 640q208-30 321-159t149-311q-154 218-470 218v-174l-298 298 298 298v-170zM298 682l-170-170 170-170v-128l-298 298 298 298v-128z" />
<glyph unicode="&#xe99f;" glyph-name="uniE160" d="M554 470v256h-84v-256h84zM512 286q22 0 39 17t17 39-17 38-39 16-39-16-17-38 17-39 39-17zM672 896l224-224v-320l-224-224h-320l-224 224v320l224 224h320z" />
<glyph unicode="&#xe9a0;" glyph-name="uniE161" d="M640 640v170h-426v-170h426zM512 214q52 0 90 38t38 90-38 90-90 38-90-38-38-90 38-90 90-38zM726 896l170-170v-512q0-34-26-60t-60-26h-596q-36 0-61 26t-25 60v596q0 34 25 60t61 26h512z" />
<glyph unicode="&#xe9a1;" glyph-name="uniE162" d="M384 640v-256h256v256h-256zM298 298v428h428v-428h-428zM640 810v86h86v-86h-86zM640 128v86h86v-86h-86zM810 298v86h86v-86h-86zM810 640v86h86v-86h-86zM810 128v86h86q0-34-26-60t-60-26zM810 470v84h86v-84h-86zM470 128v86h84v-86h-84zM384 896v-86h-86v86h86zM128 298v86h86v-86h-86zM214 128q-34 0-60 26t-26 60h86v-86zM810 896q34 0 60-26t26-60h-86v86zM554 896v-86h-84v86h84zM128 640v86h86v-86h-86zM298 128v86h86v-86h-86zM128 470v84h86v-84h-86zM128 810q0 34 26 60t60 26v-86h-86z" />
<glyph unicode="&#xe9a2;" glyph-name="uniE163" d="M86 128v298l640 86-640 86v298l896-384z" />
<glyph unicode="&#xe9a3;" glyph-name="uniE164" d="M128 470v84h512v-84h-512zM128 768h768v-86h-768v86zM128 256v86h256v-86h-256z" />
<glyph unicode="&#xe9a4;" glyph-name="uniE165" d="M512 768l-80-214h160zM406 478l-40-94h-88l202 470h64l202-470h-88l-40 94h-212zM214 298h596v-84h-596v84z" />
<glyph unicode="&#xe9a5;" glyph-name="uniE166" d="M534 682q146 0 262-86t162-222l-100-32q-34 104-123 169t-201 65q-124 0-220-80l156-154h-384v384l152-154q126 110 296 110z" />
<glyph unicode="&#xe9a6;" glyph-name="uniE167" d="M680 234h90l-218 556h-80l-218-556h90l48 128h240zM854 938q34 0 59-25t25-59v-684q0-34-25-59t-59-25h-684q-34 0-59 25t-25 59v684q0 34 25 59t59 25h684zM424 448l88 236 88-236h-176z" />
<glyph unicode="&#xe9a7;" glyph-name="uniE168" d="M682 598l-170-172-170 172h84v128h172v-128h84zM810 384v426h-598v-426h172q0-52 38-90t90-38 90 38 38 90h170zM810 896q34 0 60-26t26-60v-596q0-34-26-60t-60-26h-598q-36 0-60 25t-24 61v596q0 36 24 61t60 25h598z" />
<glyph unicode="&#xe9a8;" glyph-name="uniE169" d="M218 810h588l-40 44h-512zM512 618l-234-234h148v-86h172v86h148zM876 802q20-24 20-56v-532q0-34-26-60t-60-26h-596q-36 0-61 26t-25 60v532q0 32 20 56l58 70q20 24 50 24h512q30 0 50-24z" />
<glyph unicode="&#xe9a9;" glyph-name="uniE16A" d="M470 234l170 172-170 170-44-42 128-128-128-128zM426 810v-84h172v84h-172zM598 896q34 0 59-25t25-61v-84h172q34 0 59-26t25-60v-470q0-34-25-59t-59-25h-684q-34 0-59 25t-25 59v470q0 34 25 60t59 26h172v84q0 34 25 60t59 26h172z" />
<glyph unicode="&#xe9aa;" glyph-name="uniE16B" d="M768 810q34 0 60-25t26-59v-92q-38-14-62-46t-24-74v-88h-512v88q0 42-24 74t-62 46v92q0 34 26 59t60 25h512zM896 598q34 0 60-26t26-60v-214q0-34-26-59t-60-25h-768q-34 0-60 25t-26 59v214q0 34 26 60t60 26 60-26 26-60v-128h596v128q0 34 26 60t60 26z" />
<glyph unicode="&#xe9ab;" glyph-name="uniE16C" d="M598 810v-84h-512v84h128l42 44h170l44-44h128zM128 256v426h426v-426q0-34-25-60t-59-26h-256q-34 0-60 26t-26 60zM640 512h256v-86h-256v86zM640 682h298v-84h-298v84zM640 342h170v-86h-170v86z" />
<glyph unicode="&#xe9ac;" glyph-name="uniE16D" d="M86 534q0 114 81 195t195 81h150v-84h-150q-80 0-136-56t-56-136 56-136 136-56h22v84l128-128-128-128v86h-22q-114 0-195 82t-81 196zM598 342h340v-86h-340v86zM598 576h340v-86h-340v86zM598 810h340v-84h-340v84z" />
<glyph unicode="&#xe9ad;" glyph-name="uniE16E" d="M768 426v256h-214l-42 86h-214v-256h256l44-86h170zM598 768h256v-426h-300l-42 84h-214v-298h-84v726h340z" />
<glyph unicode="&#xe9ae;" glyph-name="uniE855" d="M512 170q124 0 211 88t87 212-87 211-211 87-211-87-87-211 87-212 211-88zM512 854q160 0 272-113t112-271-112-271-272-113-272 113-112 271 112 271 272 113zM534 682v-224l170-100-32-52-202 120v256h64zM336 880l-196-164-54 64 196 164zM938 780l-54-66-196 166 54 64z" />
<glyph unicode="&#xe9af;" glyph-name="uniE191" d="M512 170q124 0 211 88t87 212-87 211-211 87-211-87-87-211 87-212 211-88zM512 854q160 0 272-112t112-272-112-272-272-112-272 112-112 272 112 272 272 112zM534 682v-226l170-102-34-52-200 124v256h64zM338 878l-198-162-54 64 196 162zM938 780l-54-64-198 168 56 64z" />
<glyph unicode="&#xe9b0;" glyph-name="uniE8B5" d="M534 726v-224l192-114-32-54-224 136v256h64zM512 170q140 0 241 101t101 241-101 241-241 101-241-101-101-241 101-241 241-101zM512 938q176 0 301-125t125-301-125-301-301-125-301 125-125 301 125 301 301 125z" />
<glyph unicode="&#xe9b1;" glyph-name="uniE856" d="M554 640v-128h128v-86h-128v-128h-84v128h-128v86h128v128h84zM512 170q124 0 211 88t87 212-87 211-211 87-211-87-87-211 87-212 211-88zM512 854q160 0 272-113t112-271-112-271-272-113-272 113-112 271 112 271 272 113zM938 780l-54-66-196 166 54 64zM336 880l-196-164-54 64 196 164z" />
<glyph unicode="&#xe9b2;" glyph-name="uniE194" d="M128 800l54 54 672-672-54-54-246 244v-158l86-64v-64l-150 42-148-42v64l84 64v234l-340-106v84l254 160zM554 640l342-214v-84l-136 42-334 334v156q0 26 19 45t45 19 45-19 19-45v-234z" />
<glyph unicode="&#xe9b3;" glyph-name="uniE539" d="M896 342l-342 106v-234l86-64v-64l-150 42-148-42v64l84 64v234l-340-106v84l340 214v234q0 26 19 45t45 19 45-19 19-45v-234l342-214v-84z" />
<glyph unicode="&#xe9b4;" glyph-name="uniE19C" d="M554 426v214h-84v-214h84zM554 256v86h-84v-86h84zM668 854q24 0 41-17t17-41v-654q0-24-17-40t-41-16h-312q-24 0-41 16t-17 40v654q0 24 17 41t41 17h70v84h172v-84h70z" />
<glyph unicode="&#xe9b5;" glyph-name="uniE1A3" d="M470 170l170 320h-86v236l-170-320h86v-236zM668 854q24 0 41-17t17-41v-654q0-24-17-40t-41-16h-312q-24 0-41 16t-17 40v654q0 24 17 41t41 17h70v84h172v-84h70z" />
<glyph unicode="&#xe9b6;" glyph-name="uniE1A5" d="M668 854q24 0 41-17t17-41v-654q0-24-17-40t-41-16h-312q-24 0-41 16t-17 40v654q0 24 17 41t41 17h70v84h172v-84h70z" />
<glyph unicode="&#xe9b7;" glyph-name="uniE1A6" d="M610 482q30 30 30 72 0 52-38 90t-90 38-90-38-38-90h64q0 26 18 45t46 19 46-19 18-45-18-44l-40-40q-40-40-40-86h68q0 32 36 68zM552 258v82h-80v-82h80zM668 854q24 0 41-17t17-41v-654q0-24-17-40t-41-16h-312q-24 0-41 16t-17 40v654q0 24 17 41t41 17h70v84h172v-84h70z" />
<glyph unicode="&#xe9b8;" glyph-name="uniE1A7" d="M634 328l-80 82v-162zM554 776v-162l80 82zM756 696l-184-184 184-184-244-242h-42v324l-196-196-60 60 238 238-238 238 60 60 196-196v324h42z" />
<glyph unicode="&#xe9b9;" glyph-name="uniE1A8" d="M810 598l86-86-86-86-84 86zM634 328l-80 82v-162zM554 776v-162l80 82zM756 696l-184-184 184-184-244-242h-42v324l-196-196-60 60 238 238-238 238 60 60 196-196v324h42zM298 512l-84-86-86 86 86 86z" />
<glyph unicode="&#xe9ba;" glyph-name="uniE1A9" d="M554 248l80 80-80 82v-162zM230 854l624-624-60-60-98 98-184-182h-42v324l-196-196-60 60 238 238-282 282zM554 776v-138l-84 86v214h42l244-242-130-130-60 60 68 70z" />
<glyph unicode="&#xe9bb;" glyph-name="uniE60F" d="M550 328l-80 82v-162zM470 776v-162l80 82zM670 696l-184-184 184-184-244-242h-42v324l-196-196-60 60 238 238-238 238 60 60 196-196v324h42zM834 738q62-100 62-222t-66-226l-50 50q42 84 42 172t-42 172zM608 512l98 98q20-50 20-98 0-50-20-100z" />
<glyph unicode="&#xe9bc;" glyph-name="uniE1AB" d="M610 342h82l-138 384h-84l-138-384h82l30 84h136zM854 654l140-142-140-142v-200h-200l-142-140-142 140h-200v200l-140 142 140 142v200h200l142 140 142-140h200v-200zM462 484l50 156 50-156h-100z" />
<glyph unicode="&#xe9bd;" glyph-name="uniE3AC" d="M512 682q70 0 120-50t50-120-50-120-120-50-120 50-50 120 50 120 120 50zM512 256q106 0 181 75t75 181-75 181-181 75-181-75-75-181 75-181 181-75zM854 654l140-142-140-142v-200h-200l-142-140-142 140h-200v200l-140 142 140 142v200h200l142 140 142-140h200v-200z" />
<glyph unicode="&#xe9be;" glyph-name="uniE3AA" d="M512 256q106 0 181 75t75 181-75 181-181 75-181-75-75-181 75-181 181-75zM854 370v-200h-200l-142-140-142 140h-200v200l-140 142 140 142v200h200l142 140 142-140h200v-200l140-142z" />
<glyph unicode="&#xe9bf;" glyph-name="uniE3AB" d="M512 256q106 0 181 75t75 181-75 181-181 75v-512zM854 370v-200h-200l-142-140-142 140h-200v200l-140 142 140 142v200h200l142 140 142-140h200v-200l140-142z" />
<glyph unicode="&#xe9c0;" glyph-name="uniE1AF" d="M512 214q144 0 232 112l112-66q-128-174-344-174-176 0-301 125t-125 301q0 166 111 287t273 137v-128q-108-16-182-100t-74-196q0-124 87-211t211-87zM554 936q162-16 273-137t111-287q0-96-36-174l-112 66q20 56 20 108 0 112-74 196t-182 100v128z" />
<glyph unicode="&#xe9c1;" glyph-name="uniE1B0" d="M726 214v84h84v-170q0-34-25-60t-59-26h-428q-34 0-59 26t-25 60v170h84v-84h428zM426 376l-60-60-196 196 196 196 60-60-134-136zM658 316l-60 60 134 136-134 136 60 60 196-196zM298 810v-84h-84v170q0 34 25 60t59 26l428-2q34 0 59-25t25-59v-170h-84v84h-428z" />
<glyph unicode="&#xe9c2;" glyph-name="uniE326" d="M938 298v300h-170v-300h170zM982 682q18 0 30-12t12-30v-426q0-18-12-31t-30-13h-256q-18 0-31 13t-13 31v426q0 18 13 30t31 12h256zM170 768v-470h428v-128h-598v128h86v470q0 34 25 60t59 26h768v-86h-768z" />
<glyph unicode="&#xe9c3;" glyph-name="uniE1B2" d="M298 512v-86h-84v86h84zM298 682v-84h-84v84h84zM810 512v-86h-468v86h468zM810 682v-84h-468v84h468zM896 298v512h-768v-512h768zM896 896q34 0 60-26t26-60l-2-512q0-34-25-59t-59-25h-214v-86h-340v86h-214q-34 0-60 25t-26 59v512q0 34 26 60t60 26h768z" />
<glyph unicode="&#xe9c4;" glyph-name="uniE55C" d="M512 214q124 0 211 87t87 211-87 211-211 87-211-87-87-211 87-211 211-87zM894 554h88v-84h-88q-14-134-110-230t-230-110v-88h-84v88q-134 14-230 110t-110 230h-88v84h88q14 134 110 230t230 110v88h84v-88q134-14 230-110t110-230zM512 682q70 0 120-50t50-120-50-120-120-50-120 50-50 120 50 120 120 50z" />
<glyph unicode="&#xe9c5;" glyph-name="uniE1B7" d="M512 214q124 0 211 87t87 211-87 211-211 87-211-87-87-211 87-211 211-87zM894 554h88v-84h-88q-14-134-110-230t-230-110v-88h-84v88q-134 14-230 110t-110 230h-88v84h88q14 134 110 230t230 110v88h84v-88q134-14 230-110t110-230z" />
<glyph unicode="&#xe9c6;" glyph-name="uniE1B6" d="M694 276l-418 418q-62-82-62-182 0-124 87-211t211-87q100 0 182 62zM128 842l54 54 714-714-54-54-88 88q-90-74-200-86v-88h-84v88q-134 14-230 110t-110 230h-88v84h88q12 110 86 200zM894 554h88v-84h-88q-10-78-42-136l-64 64q22 54 22 114 0 124-87 211t-211 87q-60 0-114-22l-64 64q62 32 136 42v88h84v-88q134-14 230-110t110-230z" />
<glyph unicode="&#xe9c7;" glyph-name="uniE1B8" d="M810 598h86v-172h-86v172zM640 256v512h86v-512h-86zM128 426v172h86v-172h-86zM470 86v852h84v-852h-84zM298 256v512h86v-512h-86z" />
<glyph unicode="&#xe9c8;" glyph-name="uniE1B9" d="M938 86h-852l852 852v-852z" />
<glyph unicode="&#xe9c9;" glyph-name="uniE1BA" d="M872 558l2-2-362-448-362 448 2 2-136 168q242 170 496 170t496-170z" />
<glyph unicode="&#xe9ca;" glyph-name="uniE1BB" d="M768 768v-512h-512v512h170v-86h-84v-340h340v340h-128v-96q44-24 44-74 0-34-26-60t-60-26-60 26-26 60q0 50 44 74v96q0 34 25 60t59 26h214zM854 170v684h-684v-684h684zM854 938q34 0 59-25t25-59v-684q0-34-25-59t-59-25h-684q-34 0-59 25t-25 59v684q0 34 25 59t59 25h684z" />
<glyph unicode="&#xe9cb;" glyph-name="uniE1BC" d="M170 470v-300h300v-84h-300q-34 0-59 25t-25 59v300h84zM854 170v300h84v-300q0-34-25-59t-59-25h-300v84h300zM854 938q34 0 59-25t25-59v-300h-84v300h-300v84h300zM726 662q0-26-19-45t-45-19-45 19-19 45 19 45 45 19 45-19 19-45zM426 470l128-158 86 114 128-170h-512zM170 854v-300h-84v300q0 34 25 59t59 25h300v-84h-300z" />
<glyph unicode="&#xe9cc;" glyph-name="uniE1BD" d="M710 952l242-242-242-240h186v-342h-342v342h156l-240 240v-156h-342v342h342v-186zM128 128v342h342v-342h-342z" />
<glyph unicode="&#xe9cd;" glyph-name="uniE1BE" d="M460 598v-44h104v44q0 20-15 35t-37 15-37-15-15-35zM426 342q-18 0-30 12t-12 30v128q0 18 12 30t30 12v44q0 34 25 59t61 25 61-24 25-60v-44q18 0 30-12t12-30v-128q0-18-12-30t-30-12h-172zM810 298v428h-596v-428h596zM896 810q34 0 60-25t26-59v-428q0-34-26-59t-60-25h-768q-34 0-60 25t-26 59v428q0 34 26 59t60 25h768z" />
<glyph unicode="&#xe9ce;" glyph-name="uniE1BF" d="M726 214v596h-428v-596h428zM726 982q34 0 59-26t25-60v-768q0-34-25-60t-59-26h-428q-34 0-59 26t-25 60v768q0 34 25 60t59 26h428zM460 598v-44h104v44q0 20-15 35t-37 15-37-15-15-35zM426 342q-18 0-30 12t-12 30v128q0 18 12 30t30 12v44q0 34 25 59t61 25 61-24 25-60v-44q18 0 30-12t12-30v-128q0-18-12-30t-30-12h-172z" />
<glyph unicode="&#xe9cf;" glyph-name="uniE1C0" d="M716 918v-22h146v22q0 30-21 51t-51 21-52-21-22-51zM682 640q-18 0-30 12t-12 30v172q0 18 12 30t30 12v22q0 44 32 75t76 31 75-31 31-75v-22q18 0 30-12t12-30v-172q0-18-12-30t-30-12h-214zM362 150l56 56 162-162-28-2q-200 0-347 136t-163 334h64q12-118 81-215t175-147zM992 480q20-18 20-45t-20-47l-272-270q-18-20-44-20t-46 20l-512 512q-20 18-20 44t20 46l270 272q18 20 45 20t47-20l104-104-60-60-90 88-242-240 484-484 240 242-94 94 60 60z" />
<glyph unicode="&#xe9d0;" glyph-name="uniE1C1" d="M320 108l58 56 162-162-28-2q-200 0-347 136t-163 334h64q12-120 80-216t174-146zM632 120l272 272-512 512-272-272zM436 950l514-514q20-18 20-44t-20-46l-272-272q-18-20-44-20t-46 20l-514 514q-20 18-20 44t20 46l272 272q18 20 44 20t46-20zM704 916l-58-56-162 162 28 2q200 0 347-136t163-334h-64q-12 120-80 216t-174 146z" />
<glyph unicode="&#xe9d1;" glyph-name="uniE623" d="M768 682v172h-86v-172h86zM640 682v172h-86v-172h86zM512 682v172h-86v-172h86zM768 938q34 0 60-25t26-59v-684q0-34-26-59t-60-25h-512q-34 0-60 25t-26 59l2 512 254 256h342z" />
<glyph unicode="&#xe9d2;" glyph-name="uniE1C3" d="M896 212v600h-768v-600h768zM896 896q34 0 60-26t26-60v-596q0-34-26-60t-60-26h-768q-34 0-60 26t-26 60v596q0 34 26 60t60 26h768zM384 342q-52 0-90 38t-38 90q0 50 33 86t81 40h8q42 86 134 86 56 0 98-37t50-91h2q44 0 75-31t31-75-31-75-75-31h-278z" />
<glyph unicode="&#xe9d3;" glyph-name="uniE1C8" d="M86 86l852 852v-852h-852z" />
<glyph unicode="&#xe9d4;" glyph-name="uniE1CD" d="M86 86l852 852v-256h-170v-596h-682zM854 86v84h84v-84h-84zM854 256v342h84v-342h-84z" />
<glyph unicode="&#xe9d5;" glyph-name="uniE1CF" d="M938 938v-852h-852zM854 732l-562-562h562v562z" />
<glyph unicode="&#xe9d6;" glyph-name="uniE1D0" d="M204 832l734-736-54-54-84 86h-758l378 378-270 272zM896 982v-734l-366 366z" />
<glyph unicode="&#xe9d7;" glyph-name="uniE1D8" d="M512 108l-496 618q242 170 496 170t496-170z" />
<glyph unicode="&#xe9d8;" glyph-name="uniE1D9" d="M662 406v-112l-150-188-494 620 12 10q12 8 25 17t35 23 47 26 57 27 68 26 75 21 84 15 91 5 91-5 84-15 75-21 68-26 57-27 47-26 35-23 25-17l12-10-88-112q-12 4-44 4-90 0-151-61t-61-151zM938 342v64q0 26-19 45t-45 19-45-19-19-45v-64h128zM982 342q16 0 29-14t13-30v-170q0-16-13-29t-29-13h-214q-16 0-29 13t-13 29v170q0 16 13 30t29 14v64q0 46 30 76t76 30 77-31 31-75v-64z" />
<glyph unicode="&#xe9d9;" glyph-name="uniE1DA" d="M140 962q24-24 307-306t427-430l-54-54-142 142-166-206-496 618q66 54 156 94l-86 88zM1008 726l-232-290-442 440q90 20 178 20 254 0 496-170z" />
<glyph unicode="&#xe9da;" glyph-name="uniE1DB" d="M170 554v-84h86v84h-86zM86 426v172h852v-172h-852zM256 726v84h-86v-84h86zM86 854h852v-172h-852v172zM170 298v-84h86v84h-86zM86 170v172h852v-172h-852z" />
<glyph unicode="&#xe9db;" glyph-name="uniE1E0" d="M640 726h170v-172h-42v-84q0-36-25-61t-61-25h-128v-130q52-28 52-84 0-38-27-66t-67-28-67 28-27 66q0 56 52 84v130h-128q-36 0-61 25t-25 61v88q-52 28-52 82 0 40 28 67t66 27 66-27 28-67q0-56-50-82v-88h128v340h-86l128 172 128-172h-86v-340h128v84h-42v172z" />
<glyph unicode="&#xe9dc;" glyph-name="uniE1E1" d="M938 342v64q0 26-19 45t-45 19-45-19-19-45v-64h128zM982 342q18 0 30-13t12-31v-170q0-18-12-30t-30-12h-214q-18 0-30 12t-12 30v170q0 18 12 31t30 13v64q0 44 31 75t75 31 76-31 32-75v-64zM874 618q-88 0-150-62t-62-150v-122l-150-198-512 682q224 170 512 170t512-170l-114-152q-12 2-36 2z" />
<glyph unicode="&#xe9dd;" glyph-name="uniE1E2" d="M512 896q176 0 301-124t125-302q0-116-57-215t-155-155l-44 74q78 46 125 125t47 171q0 140-100 240t-242 100-242-100-100-240q0-94 46-172t124-124l-42-74q-98 56-155 155t-57 215q0 178 125 302t301 124zM768 470q0-70-35-129t-93-93l-42 74q84 50 84 148 0 70-50 120t-120 50-120-50-50-120q0-98 84-148l-42-74q-58 34-93 93t-35 129q0 106 75 181t181 75 181-75 75-181zM512 554q34 0 60-25t26-59-26-60-60-26-60 26-26 60 26 59 60 25z" />
<glyph unicode="&#xe9de;" glyph-name="uniE226" d="M704 768h64v-490q0-98-68-167t-166-69-167 69-69 167v532q0 70 51 121t121 51 120-51 50-121v-448q0-44-31-75t-75-31-76 31-32 75v406h64v-406q0-18 13-30t31-12 30 12 12 30v448q0 44-31 76t-75 32-76-32-32-76v-532q0-70 51-121t121-51 120 51 50 121v490z" />
<glyph unicode="&#xe9df;" glyph-name="uniE227" d="M504 558q44-12 73-24t61-33 49-53 17-76q0-62-41-101t-109-51v-92h-128v92q-66 14-109 56t-47 108h94q8-90 126-90 62 0 89 23t27 53q0 72-128 104-200 46-200 176 0 58 42 99t106 55v92h128v-94q66-16 101-60t37-102h-94q-4 90-108 90-52 0-83-22t-31-58q0-58 128-92z" />
<glyph unicode="&#xe9e0;" glyph-name="uniE228" d="M810 554v256h-256v-256h256zM810 214v256h-256v-256h256zM470 554v256h-256v-256h256zM470 214v256h-256v-256h256zM128 896h768v-768h-768v768z" />
<glyph unicode="&#xe9e1;" glyph-name="uniE229" d="M214 384v-86h-86v86h86zM128 128v86h768v-86h-768zM214 554v-84h-86v84h86zM810 640v86h86v-86h-86zM810 896h86v-86h-86v86zM214 726v-86h-86v86h86zM810 298v86h86v-86h-86zM810 470v84h86v-84h-86zM726 896v-86h-86v86h86zM554 896v-86h-84v86h84zM726 554v-84h-86v84h86zM554 726v-86h-84v86h84zM214 896v-86h-86v86h86zM554 554v-84h-84v84h84zM384 896v-86h-86v86h86zM554 384v-86h-84v86h84zM384 554v-84h-86v84h86z" />
<glyph unicode="&#xe9e2;" glyph-name="uniE22A" d="M640 810v86h86v-86h-86zM640 470v84h86v-84h-86zM640 128v86h86v-86h-86zM470 810v86h84v-86h-84zM810 896h86v-86h-86v86zM470 640v86h84v-86h-84zM810 640v86h86v-86h-86zM810 128v86h86v-86h-86zM810 470v84h86v-84h-86zM810 298v86h86v-86h-86zM470 470v84h84v-84h-84zM128 810v86h86v-86h-86zM128 640v86h86v-86h-86zM128 470v84h86v-84h-86zM128 298v86h86v-86h-86zM128 128v86h86v-86h-86zM470 128v86h84v-86h-84zM470 298v86h84v-86h-84zM298 128v86h86v-86h-86zM298 470v84h86v-84h-86zM298 810v86h86v-86h-86z" />
<glyph unicode="&#xe9e3;" glyph-name="uniE22B" d="M0 170h1024v-170h-1024v170zM884 852l-84-84-160 160 84 84q12 12 30 12t30-12l100-100q12-12 12-30t-12-30zM758 726l-428-428h-160v160l428 428z" />
<glyph unicode="&#xe9e4;" glyph-name="uniE22C" d="M810 128v86h86v-86h-86zM640 128v86h86v-86h-86zM470 298v86h84v-86h-84zM810 640v86h86v-86h-86zM810 896h86v-86h-86v86zM128 470v84h768v-84h-768zM470 128v86h84v-86h-84zM810 298v86h86v-86h-86zM554 896v-86h-84v86h84zM554 726v-86h-84v86h84zM726 896v-86h-86v86h86zM384 896v-86h-86v86h86zM214 896v-86h-86v86h86zM298 128v86h86v-86h-86zM128 298v86h86v-86h-86zM214 726v-86h-86v86h86zM128 128v86h86v-86h-86z" />
<glyph unicode="&#xe9e5;" glyph-name="uniE22D" d="M810 298v86h86v-86h-86zM810 128v86h86v-86h-86zM554 896v-342h342v-84h-342v-342h-84v342h-342v84h342v342h84zM640 128v86h86v-86h-86zM810 896h86v-86h-86v86zM810 640v86h86v-86h-86zM726 896v-86h-86v86h86zM214 896v-86h-86v86h86zM384 896v-86h-86v86h86zM128 298v86h86v-86h-86zM214 726v-86h-86v86h86zM298 128v86h86v-86h-86zM128 128v86h86v-86h-86z" />
<glyph unicode="&#xe9e6;" glyph-name="uniE22E" d="M640 810v86h86v-86h-86zM640 470v84h86v-84h-86zM810 128v86h86v-86h-86zM810 470v84h86v-84h-86zM810 896h86v-86h-86v86zM810 298v86h86v-86h-86zM640 128v86h86v-86h-86zM810 640v86h86v-86h-86zM128 128v768h86v-768h-86zM298 470v84h86v-84h-86zM298 810v86h86v-86h-86zM298 128v86h86v-86h-86zM470 470v84h84v-84h-84zM470 640v86h84v-86h-84zM470 810v86h84v-86h-84zM470 298v86h84v-86h-84zM470 128v86h84v-86h-84z" />
<glyph unicode="&#xe9e7;" glyph-name="uniE22F" d="M384 554v-84h-86v84h86zM554 384v-86h-84v86h84zM810 214v596h-596v-596h596zM128 896h768v-768h-768v768zM726 554v-84h-86v84h86zM554 554v-84h-84v84h84zM554 726v-86h-84v86h84z" />
<glyph unicode="&#xe9e8;" glyph-name="uniE230" d="M470 640v86h84v-86h-84zM470 810v86h84v-86h-84zM470 470v84h84v-84h-84zM640 810v86h86v-86h-86zM640 128v86h86v-86h-86zM810 896h86v-768h-86v768zM640 470v84h86v-84h-86zM470 298v86h84v-86h-84zM128 640v86h86v-86h-86zM128 298v86h86v-86h-86zM128 470v84h86v-84h-86zM470 128v86h84v-86h-84zM128 128v86h86v-86h-86zM298 470v84h86v-84h-86zM298 810v86h86v-86h-86zM128 810v86h86v-86h-86zM298 128v86h86v-86h-86z" />
<glyph unicode="&#xe9e9;" glyph-name="uniE231" d="M810 640v86h86v-86h-86zM128 896h768v-86h-682v-682h-86v768zM810 470v84h86v-84h-86zM810 298v86h86v-86h-86zM470 128v86h84v-86h-84zM298 128v86h86v-86h-86zM810 128v86h86v-86h-86zM640 128v86h86v-86h-86z" />
<glyph unicode="&#xe9ea;" glyph-name="uniE232" d="M640 470v84h86v-84h-86zM810 128v86h86v-86h-86zM470 640v86h84v-86h-84zM640 128v86h86v-86h-86zM810 298v86h86v-86h-86zM128 896h768v-86h-768v86zM810 470v84h86v-84h-86zM810 640v86h86v-86h-86zM470 298v86h84v-86h-84zM128 640v86h86v-86h-86zM128 470v84h86v-84h-86zM128 128v86h86v-86h-86zM128 298v86h86v-86h-86zM470 128v86h84v-86h-84zM470 470v84h84v-84h-84zM298 470v84h86v-84h-86zM298 128v86h86v-86h-86z" />
<glyph unicode="&#xe9eb;" glyph-name="uniE233" d="M640 470v84h86v-84h-86zM640 128v86h86v-86h-86zM640 810v86h86v-86h-86zM810 640v86h86v-86h-86zM810 896h86v-86h-86v86zM810 470v84h86v-84h-86zM810 128v86h86v-86h-86zM470 128v768h84v-768h-84zM810 298v86h86v-86h-86zM298 810v86h86v-86h-86zM128 298v86h86v-86h-86zM128 128v86h86v-86h-86zM128 470v84h86v-84h-86zM298 470v84h86v-84h-86zM298 128v86h86v-86h-86zM128 810v86h86v-86h-86zM128 640v86h86v-86h-86z" />
<glyph unicode="&#xe9ec;" glyph-name="uniE234" d="M128 896h768v-86h-768v86zM298 726h428v-86h-428v86zM128 470v84h768v-84h-768zM128 128v86h768v-86h-768zM298 384h428v-86h-428v86z" />
<glyph unicode="&#xe9ed;" glyph-name="uniE235" d="M128 896h768v-86h-768v86zM128 640v86h768v-86h-768zM128 470v84h768v-84h-768zM128 298v86h768v-86h-768zM128 128v86h768v-86h-768z" />
<glyph unicode="&#xe9ee;" glyph-name="uniE236" d="M128 896h768v-86h-768v86zM128 128v86h768v-86h-768zM128 470v84h768v-84h-768zM640 726v-86h-512v86h512zM640 384v-86h-512v86h512z" />
<glyph unicode="&#xe9ef;" glyph-name="uniE237" d="M128 896h768v-86h-768v86zM384 640v86h512v-86h-512zM128 470v84h768v-84h-768zM384 298v86h512v-86h-512zM128 128v86h768v-86h-768z" />
<glyph unicode="&#xe9f0;" glyph-name="uniE238" d="M576 362q28 0 46 19t18 45-18 45-46 19h-150v-128h150zM426 746v-128h128q26 0 45 19t19 45-19 45-45 19h-128zM666 564q92-42 92-146 0-68-45-115t-113-47h-302v598h268q72 0 121-50t49-122-70-118z" />
<glyph unicode="&#xe9f1;" glyph-name="uniE239" d="M256 810h598v-128h-248l-68-160-90 88 30 72h-102l-120 120v8zM140 810l12-10 616-618-54-54-242 242-66-156h-128l104 246-296 296z" />
<glyph unicode="&#xe9f2;" glyph-name="uniE23A" d="M0 170h1024v-170h-1024v170zM810 534q86-94 86-150 0-34-26-60t-60-26-59 26-25 60q0 24 21 62t41 62zM222 598h410l-206 204zM706 642q20-20 20-46t-20-44l-234-234q-20-20-46-20-24 0-44 20l-236 234q-20 18-20 44t20 46l220 220-102 102 62 60z" />
<glyph unicode="&#xe9f3;" glyph-name="uniE23B" d="M224 800l624-624-54-54-114 112q-74-64-168-64-106 0-181 75t-75 181q0 68 56 176l-142 142zM768 426q0-30-6-56l-366 368 116 150q28-32 71-86t114-177 71-199z" />
<glyph unicode="&#xe9f4;" glyph-name="uniE23C" d="M410 512h204l-102 270zM470 896h84l234-598h-96l-46 128h-268l-48-128h-96zM0 170h1024v-170h-1024v170z" />
<glyph unicode="&#xe9f5;" glyph-name="uniE23D" d="M470 470v84h426v-84h-426zM470 640v86h426v-86h-426zM128 896h768v-86h-768v86zM128 128v86h768v-86h-768zM128 512l170 170v-340zM470 298v86h426v-86h-426z" />
<glyph unicode="&#xe9f6;" glyph-name="uniE23E" d="M470 470v84h426v-84h-426zM470 640v86h426v-86h-426zM128 896h768v-86h-768v86zM470 298v86h426v-86h-426zM128 682l170-170-170-170v340zM128 128v86h768v-86h-768z" />
<glyph unicode="&#xe9f7;" glyph-name="uniE23F" d="M426 854h342v-128h-120l-144-342h94v-128h-342v128h120l144 342h-94v128z" />
<glyph unicode="&#xe9f8;" glyph-name="uniE240" d="M426 470v84h512v-84h-512zM426 214v84h512v-84h-512zM426 810h512v-84h-512v84zM256 726v-428h106l-148-148-150 148h106v428h-106l150 148 148-148h-106z" />
<glyph unicode="&#xe9f9;" glyph-name="uniE241" d="M298 810h598v-84h-598v84zM298 470v84h598v-84h-598zM298 214v84h598v-84h-598zM170 320q26 0 45-19t19-45-19-45-45-19-45 19-19 45 19 45 45 19zM170 832q26 0 45-18t19-46-19-46-45-18-45 18-19 46 19 46 45 18zM170 576q26 0 45-18t19-46-19-46-45-18-45 18-19 46 19 46 45 18z" />
<glyph unicode="&#xe9fa;" glyph-name="uniE242" d="M298 470v84h598v-84h-598zM298 214v84h598v-84h-598zM298 810h598v-84h-598v84zM86 554v44h128v-40l-78-88h78v-44h-128v40l76 88h-76zM128 682v128h-42v44h84v-172h-42zM86 298v44h128v-172h-128v44h84v20h-42v44h42v20h-84z" />
<glyph unicode="&#xe9fb;" glyph-name="uniE243" d="M768 854h128v-342h-342v-384q0-18-12-30t-30-12h-86q-18 0-30 12t-12 30v470h426v170h-42v-42q0-18-12-31t-30-13h-512q-18 0-31 13t-13 31v170q0 18 13 30t31 12h512q18 0 30-12t12-30v-42z" />
<glyph unicode="&#xe9fc;" glyph-name="uniE244" d="M598 298l84 172h-128v256h256v-256l-84-172h-128zM256 298l86 172h-128v256h256v-256l-86-172h-128z" />
<glyph unicode="&#xe9fd;" glyph-name="uniE245" d="M128 512v128h384v-128h-128v-298h-128v298h-128zM384 854h554v-128h-212v-512h-128v512h-214v128z" />
<glyph unicode="&#xe9fe;" glyph-name="uniE246" d="M128 426v86h768v-86h-768zM214 854h596v-128h-212v-128h-172v128h-212v128zM426 214v128h172v-128h-172z" />
<glyph unicode="&#xe9ff;" glyph-name="uniE247" d="M896 256l-170-170v128h-512v84h512v128zM384 598q-70 0-120 50t-50 120 50 120 120 50h342v-84h-86v-470h-86v470h-84v-470h-86v214z" />
<glyph unicode="&#xea00;" glyph-name="uniE248" d="M342 298h512v-84h-512v-128l-172 170 172 170v-128zM426 598q-70 0-120 50t-50 120 50 120 120 50h342v-84h-86v-470h-84v470h-86v-470h-86v214z" />
<glyph unicode="&#xea01;" glyph-name="uniE249" d="M214 214h596v-86h-596v86zM512 298q-106 0-181 75t-75 181v342h106v-342q0-62 44-105t106-43 106 43 44 105v342h106v-342q0-106-75-181t-181-75z" />
<glyph unicode="&#xea02;" glyph-name="uniE24A" d="M768 854v-128h-298l212-214-212-214h298v-128h-512v86l278 256-278 256v86h512z" />
<glyph unicode="&#xea03;" glyph-name="uniE85C" d="M726 298v172h-86v-172h86zM554 298v428h-84v-428h84zM384 298v300h-86v-300h86zM810 896q34 0 60-26t26-60v-596q0-34-26-60t-60-26h-596q-34 0-60 26t-26 60v596q0 34 26 60t60 26h596z" />
<glyph unicode="&#xea04;" glyph-name="uniE24C" d="M768 682v86h-512v-86h512zM768 554v86h-512v-86h512zM768 426v86h-512v-86h512zM854 938q34 0 59-25t25-59v-768l-170 170h-598q-34 0-59 26t-25 60v512q0 34 25 59t59 25h684z" />
<glyph unicode="&#xea05;" glyph-name="uniE24D" d="M554 640h236l-236 234v-234zM256 938h342l256-256v-512q0-34-26-59t-60-25h-512q-34 0-60 25t-26 59l2 684q0 34 25 59t59 25z" />
<glyph unicode="&#xea06;" glyph-name="uniE7F2" d="M512 278q-74 0-133 41t-85 107h436q-26-66-85-107t-133-41zM362 554q-26 0-45 19t-19 45 19 45 45 19 45-19 19-45-19-45-45-19zM662 554q-26 0-45 19t-19 45 19 45 45 19 45-19 19-45-19-45-45-19zM512 170q140 0 241 101t101 241-101 241-241 101-241-101-101-241 101-241 241-101zM512 938q176 0 301-125t125-301-125-301-301-125-301 125-125 301 125 301 301 125z" />
<glyph unicode="&#xea07;" glyph-name="uniE878" d="M810 214v468h-596v-468h596zM682 982h86v-86h42q34 0 60-26t26-60v-596q0-34-26-60t-60-26h-596q-36 0-61 26t-25 60v596q0 34 25 60t61 26h42v86h86v-86h340v86zM726 512v-214h-214v214h214z" />
<glyph unicode="&#xea08;" glyph-name="uniE410" d="M362 448l-148-192h596l-192 256-148-192zM896 214q0-34-26-60t-60-26h-596q-34 0-60 26t-26 60v596q0 34 26 60t60 26h596q34 0 60-26t26-60v-596z" />
<glyph unicode="&#xea09;" glyph-name="uniE253" d="M938 854v-768l-170 170h-598q-34 0-59 26t-25 60v512q0 34 25 59t59 25h684q34 0 59-25t25-59z" />
<glyph unicode="&#xea0a;" glyph-name="uniE255" d="M214 426l298 300 298-300h-170v-256h-256v256h-170zM214 854h596v-86h-596v86z" />
<glyph unicode="&#xea0b;" glyph-name="uniE256" d="M768 640h86v-256h-684v256h86v-170h512v170z" />
<glyph unicode="&#xea0c;" glyph-name="uniE257" d="M400 464q0-108 124-108 98 0 98 72 0 32-13 46t-47 30q-2 0-7 2t-9 4-8 2h-410v86h768v-86h-166q0-2 3-7t5-7q14-34 14-70 0-122-134-160-42-12-92-12-32 0-62 6-72 14-112 44-78 58-78 158h126zM622 704q0 90-102 90-72 0-94-44-6-12-6-28 0-30 32-52 32-20 60-30h-196q0 2-4 5t-4 5q-16 26-16 72 0 74 64 126 68 48 166 48 106 0 166-54 62-56 62-138h-128z" />
<glyph unicode="&#xea0d;" glyph-name="uniE258" d="M170 214h684v-86h-684v86zM682 470l-170-172-170 172h128v426h84v-426h128z" />
<glyph unicode="&#xea0e;" glyph-name="uniE259" d="M170 554h684v-84h-684v84zM682 810l-170-170-170 170h128v172h84v-172h128zM342 214l170 170 170-170h-128v-172h-84v172h-128z" />
<glyph unicode="&#xea0f;" glyph-name="uniE25A" d="M170 896h684v-86h-684v86zM342 554l170 172 170-172h-128v-426h-84v426h-128z" />
<glyph unicode="&#xea10;" glyph-name="uniE25B" d="M726 554q70 0 120-50t50-120-50-120-120-50h-86v-86l-128 128 128 128v-86h96q34 0 60 26t26 60-26 60-60 26h-566v84h556zM854 810v-84h-684v84h684zM170 214v84h256v-84h-256z" />
<glyph unicode="&#xea11;" glyph-name="uniE25C" d="M228 850l622-624-54-54-94 96q-38-34-104-48v-92h-128v92q-66 14-110 56t-48 108h94q8-90 128-90 74 0 102 40l-150 148q-166 50-166 168l-146 146zM534 730q-38 0-66-12l-62 62q28 14 64 24v92h128v-94q64-16 99-60t37-102h-94q-4 90-106 90z" />
<glyph unicode="&#xea12;" glyph-name="uniE25D" d="M170 384v86h684v-86h-684zM854 640v-86h-684v86h684z" />
<glyph unicode="&#xea13;" glyph-name="uniE25E" d="M456 480h112l-56 164zM586 426h-150l-30-84h-70l146 384h60l144-384h-68zM810 810h86v86h-86v-86zM896 128v86h-86v-86h86zM726 214v84h84v428h-84v84h-428v-84h-84v-428h84v-84h428zM214 128v86h-86v-86h86zM128 896v-86h86v86h-86zM982 726h-86v-428h86v-256h-256v86h-428v-86h-256v256h86v428h-86v256h256v-86h428v86h256v-256z" />
<glyph unicode="&#xea14;" glyph-name="uniE25F" d="M724 744l90 90 60-60-90-92zM150 774l60 60 90-90-60-62zM470 938h84v-128h-84v128zM256 426v214h512v-214l-128-128v-212h-256v212z" />
<glyph unicode="&#xea15;" glyph-name="uniE260" d="M832 618q44 0 75-31t31-75-31-75-75-31q-72 0-98 64h-124q-26-64-98-64t-98 64h-124q-26-64-98-64-44 0-75 31t-31 75 31 75 75 31q72 0 98-64h124q26 64 98 64t98-64h124q26 64 98 64z" />
<glyph unicode="&#xea16;" glyph-name="uniE261" d="M170 470h428v-86h-428v86zM170 640h684v-86h-684v86z" />
<glyph unicode="&#xea17;" glyph-name="uniE262" d="M918 640v-128h-128v-298h-128v298h-128v128h384zM106 854h556v-128h-214v-512h-128v512h-214v128z" />
<glyph unicode="&#xea18;" glyph-name="uniE263" d="M572 252q134 26 134 134 0 122-180 168-112 28-112 82 0 30 27 50t75 20q90 0 94-80h84q-4 114-122 144v84h-114v-84q-58-12-95-47t-37-89q0-112 178-156 114-26 114-92 0-26-23-47t-79-21q-106 0-114 80h-84q6-114 140-144v-84h114v82zM512 938q176 0 301-125t125-301-125-301-301-125-301 125-125 301 125 301 301 125z" />
<glyph unicode="&#xea19;" glyph-name="uniE264" d="M214 854h596v-128h-234v-512h-128v512h-234v128z" />
<glyph unicode="&#xea1a;" glyph-name="uniE265" d="M128 214v384h214v-470h-128q-34 0-60 26t-26 60zM854 896q34 0 59-26t25-60v-128h-810v128q0 34 26 60t60 26h640zM726 128v470h212v-384q0-34-25-60t-59-26h-128zM426 596h214v-468h-214v468z" />
<glyph unicode="&#xea1b;" glyph-name="uniE266" d="M726 554v86h-172v170h-84v-170h-172v-86h172v-170h84v170h172zM938 854v-768l-170 170h-598q-34 0-59 26t-25 60v512q0 34 25 59t59 25h684q34 0 59-25t25-59z" />
<glyph unicode="&#xea1c;" glyph-name="uniE2BC" d="M86 490q0 98 68 167t166 69h448q70 0 120-51t50-121-50-120-120-50h-362q-44 0-76 31t-32 75 32 76 76 32h320v-86h-324q-18 0-18-21t18-21h366q34 0 60 25t26 59-26 60-60 26h-448q-62 0-106-44t-44-106 44-105 106-43h406v-86h-406q-98 0-166 68t-68 166z" />
<glyph unicode="&#xea1d;" glyph-name="uniE42D" d="M826 596q82-6 140-67t58-145q0-88-63-151t-151-63h-554q-106 0-181 75t-75 181q0 98 66 171t162 83q42 78 118 126t166 48q116 0 204-73t110-185z" />
<glyph unicode="&#xea1e;" glyph-name="uniE2BE" d="M704 342q44 0 75 31t31 75-31 75-75 31h-22q0 70-50 121t-120 51q-60 0-105-37t-59-93l-6 2q-52 0-90-38t-38-90 38-90 90-38h362zM512 938q176 0 301-125t125-301-125-301-301-125-301 125-125 301 125 301 301 125z" />
<glyph unicode="&#xea1f;" glyph-name="uniE2BF" d="M426 298l282 282-60 60-222-220-88 88-60-60zM826 596q82-6 140-67t58-145q0-88-63-151t-151-63h-554q-106 0-181 75t-75 181q0 98 66 171t162 83q42 78 118 126t166 48q116 0 204-73t110-185z" />
<glyph unicode="&#xea20;" glyph-name="uniE2C0" d="M726 470h-128v170h-172v-170h-128l214-214zM826 596q82-6 140-67t58-145q0-88-63-151t-151-63h-554q-106 0-181 75t-75 181q0 98 66 171t162 83q42 78 118 126t166 48q116 0 204-73t110-185z" />
<glyph unicode="&#xea21;" glyph-name="uniE2C1" d="M330 598h-74q-70 0-120-51t-50-121 50-120 120-50h416zM128 800l54 54 714-714-54-54-86 84h-500q-106 0-181 75t-75 181q0 104 72 178t174 78zM826 596q82-6 140-67t58-145q0-110-90-174l-62 62q66 36 66 112 0 52-38 90t-90 38h-64v22q0 98-68 166t-166 68q-62 0-108-26l-64 62q78 50 172 50 116 0 204-73t110-185z" />
<glyph unicode="&#xea22;" glyph-name="uniE2C2" d="M810 256q52 0 90 38t38 90-38 90-90 38h-64v22q0 98-68 166t-166 68q-80 0-142-48t-84-122h-30q-70 0-120-51t-50-121 50-120 120-50h554zM826 596q82-6 140-67t58-145q0-88-63-151t-151-63h-554q-106 0-181 75t-75 181q0 98 66 171t162 83q42 78 118 126t166 48q116 0 204-73t110-185z" />
<glyph unicode="&#xea23;" glyph-name="uniE864" d="M598 470h128l-214 212-214-212h128v-172h172v172zM826 596q82-6 140-67t58-145q0-88-63-151t-151-63h-554q-106 0-181 75t-75 181q0 98 66 171t162 83q42 78 118 126t166 48q116 0 204-73t110-185z" />
<glyph unicode="&#xea24;" glyph-name="uniE884" d="M214 256h596v-86h-596v86zM810 640l-298-298-298 298h170v256h256v-256h170z" />
<glyph unicode="&#xea25;" glyph-name="uniE2C6" d="M214 256h596v-86h-596v86zM384 342v256h-170l298 298 298-298h-170v-256h-256z" />
<glyph unicode="&#xea26;" glyph-name="uniE2C7" d="M426 854l86-86h342q34 0 59-26t25-60v-426q0-34-25-60t-59-26h-684q-34 0-59 26t-25 60v512q0 34 25 60t59 26h256z" />
<glyph unicode="&#xea27;" glyph-name="uniE2C8" d="M854 256v426h-684v-426h684zM854 768q34 0 59-26t25-60v-426q0-34-25-60t-59-26h-684q-34 0-59 26t-25 60v512q0 34 25 60t59 26h256l86-86h342z" />
<glyph unicode="&#xea28;" glyph-name="uniE2C9" d="M810 298v44q0 38-59 61t-111 23-111-23-59-61v-44h340zM640 640q-34 0-60-26t-26-60 26-59 60-25 60 25 26 59-26 60-60 26zM854 768q34 0 59-26t25-60v-426q0-34-25-60t-59-26h-684q-34 0-59 26t-25 60v512q0 34 25 60t59 26h256l86-86h342z" />
<glyph unicode="&#xea29;" glyph-name="uniE2CC" d="M810 426v86h-128v128h-84v-128h-128v-86h128v-128h84v128h128zM854 768q36 0 60-25t24-61v-426q0-36-24-61t-60-25h-684q-36 0-60 25t-24 61v512q0 36 24 61t60 25h256l86-86h342z" />
<glyph unicode="&#xea2a;" glyph-name="uniE307" d="M42 598q194 0 332-138t138-332h-86q0 160-113 272t-271 112v86zM42 426q124 0 212-87t88-211h-86q0 88-63 151t-151 63v84zM42 256q52 0 90-38t38-90h-128v128zM896 896q34 0 60-26t26-60v-596q0-34-26-60t-60-26h-298v86h298v596h-768v-128h-86v128q0 34 26 60t60 26h768z" />
<glyph unicode="&#xea2b;" glyph-name="uniE308" d="M896 896q34 0 60-26t26-60v-596q0-34-26-60t-60-26h-298v86h298v596h-768v-128h-86v128q0 34 26 60t60 26h768zM42 598q194 0 332-138t138-332h-86q0 160-113 272t-271 112v86zM810 726v-428h-240q-40 126-135 222t-221 136v70h596zM42 426q124 0 212-87t88-211h-86q0 88-63 151t-151 63v84zM42 256q52 0 90-38t38-90h-128v128z" />
<glyph unicode="&#xea2c;" glyph-name="uniE31E" d="M170 768v-426h684v426h-684zM854 256h170v-86h-1024v86h170q-34 0-59 26t-25 60v426q0 34 25 60t59 26h684q34 0 59-26t25-60v-426q0-34-25-60t-59-26z" />
<glyph unicode="&#xea2d;" glyph-name="uniE30B" d="M896 426v428h-768v-428h768zM896 938q34 0 60-25t26-59v-512q0-34-26-60t-60-26h-298l84-128v-42h-340v42l84 128h-298q-34 0-60 26t-26 60v512q0 34 26 59t60 25h768z" />
<glyph unicode="&#xea2e;" glyph-name="uniE30C" d="M896 342v512h-768v-512h768zM896 938q34 0 60-25t26-59v-512q0-34-26-60t-60-26h-298v-86h84v-84h-340v84h84v86h-298q-34 0-60 26t-26 60v512q0 34 26 59t60 25h768z" />
<glyph unicode="&#xea2f;" glyph-name="uniE30D" d="M512 554h170v-256h-170v256zM256 726h214v-214h-214v214zM512 726h170v-128h-170v128zM256 470h214v-172h-214v172zM768 214v596h-598v-596h598zM938 640h-84v-86h84v-84h-84v-86h84v-86h-84v-84q0-34-26-60t-60-26h-598q-34 0-59 26t-25 60v596q0 34 25 60t59 26h598q34 0 60-26t26-60v-84h84v-86z" />
<glyph unicode="&#xea30;" glyph-name="uniE30E" d="M682 384v426h-340v-426h340zM682 980q34 0 60-25t26-59v-598q0-34-26-59t-60-25h-340q-34 0-60 25t-26 59v598q0 34 26 60t60 26zM342 42v86h340v-86h-340z" />
<glyph unicode="&#xea31;" glyph-name="uniE310" d="M512 982q160 0 272-113t112-271v-300q0-52-38-90t-90-38h-128v342h170v86q0 124-87 211t-211 87-211-87-87-211v-86h170v-342h-128q-52 0-90 38t-38 90v300q0 158 112 271t272 113z" />
<glyph unicode="&#xea32;" glyph-name="uniE311" d="M512 982q160 0 272-113t112-271v-428q0-52-38-90t-90-38h-256v86h298v42h-170v342h170v86q0 124-87 211t-211 87-211-87-87-211v-86h170v-342h-128q-52 0-90 38t-38 90v300q0 158 112 271t272 113z" />
<glyph unicode="&#xea33;" glyph-name="uniE312" d="M810 598v84h-84v-84h84zM810 470v84h-84v-84h84zM682 598v84h-84v-84h84zM682 470v84h-84v-84h84zM682 298v86h-340v-86h340zM298 598v84h-84v-84h84zM298 470v84h-84v-84h84zM342 554v-84h84v84h-84zM342 682v-84h84v84h-84zM470 554v-84h84v84h-84zM470 682v-84h84v84h-84zM854 810q34 0 59-25t25-59v-428q0-34-25-59t-59-25h-684q-34 0-59 25t-25 59v428q0 34 25 59t59 25h684z" />
<glyph unicode="&#xea34;" glyph-name="uniE313" d="M316 690l196-196 196 196 60-60-256-256-256 256z" />
<glyph unicode="&#xea35;" glyph-name="uniE314" d="M658 338l-60-60-256 256 256 256 60-60-196-196z" />
<glyph unicode="&#xea36;" glyph-name="uniE315" d="M366 326l196 196-196 196 60 60 256-256-256-256z" />
<glyph unicode="&#xea37;" glyph-name="uniE316" d="M316 366l-60 60 256 256 256-256-60-60-196 196z" />
<glyph unicode="&#xea38;" glyph-name="uniE317" d="M896 554v-84h-604l152-154-60-60-256 256 256 256 60-60-152-154h604z" />
<glyph unicode="&#xea39;" glyph-name="uniE318" d="M256 256v86h512v-86h-512zM512 666l-196-196-60 60 256 256 256-256-60-60z" />
<glyph unicode="&#xea3a;" glyph-name="uniE31A" d="M512 42l-170 172h340zM810 682v86h-84v-86h84zM810 554v86h-84v-86h84zM682 682v86h-84v-86h84zM682 554v86h-84v-86h84zM682 384v86h-340v-86h340zM298 682v86h-84v-86h84zM298 554v86h-84v-86h84zM342 640v-86h84v86h-84zM342 768v-86h84v86h-84zM470 640v-86h84v86h-84zM470 768v-86h84v86h-84zM854 896q34 0 59-26t25-60v-426q0-34-25-60t-59-26h-684q-34 0-59 26t-25 60v426q0 34 25 60t59 26h684z" />
<glyph unicode="&#xea3b;" glyph-name="uniE31B" d="M810 726h86v-256h-648l154-154-60-60-256 256 256 256 60-60-154-154h562v172z" />
<glyph unicode="&#xea3c;" glyph-name="uniE31C" d="M854 768h84v-512h-84v512zM494 708l60 60 256-256-256-256-60 60 154 154h-606v84h606z" />
<glyph unicode="&#xea3d;" glyph-name="uniE31D" d="M738 512h72q0-108-75-189t-181-97v-140h-84v140q-106 16-181 97t-75 189h72q0-94 67-156t159-62 159 62 67 156zM512 384q-52 0-90 38t-38 90v256q0 52 38 90t90 38 90-38 38-90v-256q0-52-38-90t-90-38z" />
<glyph unicode="&#xea3e;" glyph-name="uniE31F" d="M854 384v426h-684v-426h684zM598 256v42h-172v-42h172zM938 256h86v-86h-1024v86h86v640h852v-640z" />
<glyph unicode="&#xea3f;" glyph-name="uniE320" d="M512 214q18 0 30 12t12 30-12 30-30 12-30-12-12-30 12-30 30-12zM170 810v-468h684v468h-684zM854 256h170q0-34-26-60t-60-26h-852q-34 0-60 26t-26 60h170q-34 0-59 26t-25 60v468q0 34 25 60t59 26h684q34 0 59-26t25-60v-468q0-34-25-60t-59-26z" />
<glyph unicode="&#xea40;" glyph-name="uniE321" d="M170 810v-426h684v426h-684zM854 256h170v-86h-1024v86h170v42q-34 0-59 26t-25 60v426q0 34 25 60t59 26h684q34 0 59-26t25-60v-426q0-34-25-60t-59-26v-42z" />
<glyph unicode="&#xea41;" glyph-name="uniE322" d="M726 298v428h-428v-428h428zM896 554h-86v-84h86v-86h-86v-86q0-34-25-59t-59-25h-86v-86h-86v86h-84v-86h-86v86h-86q-34 0-59 25t-25 59v86h-86v86h86v84h-86v86h86v86q0 34 25 59t59 25h86v86h86v-86h84v86h86v-86h86q34 0 59-25t25-59v-86h86v-86zM554 470v84h-84v-84h84zM640 640v-256h-256v256h256z" />
<glyph unicode="&#xea42;" glyph-name="uniE323" d="M470 978v-338h-300q0 130 87 226t213 112zM170 384v170h684v-170q0-140-101-241t-241-101-241 101-101 241zM554 978q126-16 213-112t87-226h-300v338z" />
<glyph unicode="&#xea43;" glyph-name="uniE324" d="M736 256v598h-448v-598h448zM598 128v42h-172v-42h172zM682 982q52 0 90-38t38-90v-684q0-52-38-90t-90-38h-340q-52 0-90 38t-38 90v684q0 52 38 90t90 38h340z" />
<glyph unicode="&#xea44;" glyph-name="uniE325" d="M682 256v598h-384v-598h384zM490 86q26 0 45 19t19 45-19 45-45 19-45-19-19-45 19-45 45-19zM662 982q44 0 75-32t31-76v-724q0-44-31-76t-75-32h-342q-44 0-75 32t-31 76v724q0 44 31 76t75 32h342z" />
<glyph unicode="&#xea45;" glyph-name="uniE327" d="M982 682q18 0 30-12t12-30v-426q0-18-12-31t-30-13h-8l-128 128h92v300h-170v-222l-86 86v178q0 18 13 30t31 12h256zM170 756v-458h458zM82 954q162-162 461-462t367-368l-54-54-100 100h-756v128h86v470q0 30 20 54l-78 78zM938 768h-562l-86 86h648v-86z" />
<glyph unicode="&#xea46;" glyph-name="uniE328" d="M640 256v86h-86v-86h86zM490 256v86h-84v-86h84zM342 256v86h-86v-86h86zM810 470q34 0 60-26t26-60v-170q0-34-26-60t-60-26h-596q-34 0-60 26t-26 60v170q0 34 26 60t60 26h426v170h86v-170h84zM824 738l-34-34q-42 42-108 42-64 0-106-42l-34 34q60 60 140 60 82 0 142-60zM862 772q-82 72-180 72-96 0-178-72l-34 34q90 90 212 90 124 0 214-90z" />
<glyph unicode="&#xea47;" glyph-name="uniE329" d="M810 298v86h-426v-86h426zM298 298v86h-84v-86h84zM844 568q22-6 37-29t15-49v-234q0-34-26-60t-60-26h-596q-34 0-60 26t-26 60v170q0 34 26 60t60 26h536l-600 218 30 80z" />
<glyph unicode="&#xea48;" glyph-name="uniE32A" d="M512 982l384-172v-256q0-178-110-325t-274-187q-164 40-274 187t-110 325v256zM512 512v-382q118 38 200 143t98 239h-298zM512 512v376l-298-132v-244h298z" />
<glyph unicode="&#xea49;" glyph-name="uniE32B" d="M726 384v170h-86v-170h86zM554 470v84h-84v-84h84zM554 214v170h-84v-170h84zM384 384v170h-86v-170h86zM726 214v84h-86v-84h86zM384 214v84h-86v-84h86zM852 854l2-684q0-34-26-59t-60-25h-512q-34 0-60 25t-26 59v512l256 256h342q34 0 59-25t25-59z" />
<glyph unicode="&#xea4a;" glyph-name="uniE32D" d="M512 512q52 0 90-38t38-90-38-90-90-38-90 38-38 90 38 90 90 38zM512 170q88 0 151 63t63 151-63 151-151 63-151-63-63-151 63-151 151-63zM512 854q-36 0-61-26t-25-60 25-60 61-26q34 0 60 26t26 60-26 60-60 26zM726 938q34 0 59-25t25-59v-684q0-34-25-59t-59-25h-428q-34 0-59 25t-25 59v684q0 34 25 59t59 25h428z" />
<glyph unicode="&#xea4b;" glyph-name="uniE32E" d="M256 810v-682h426v-86h-426q-36 0-61 26t-25 60v682h86zM490 490q0 44 32 76t76 32 75-32 31-76-31-75-75-31-76 31-32 75zM598 320q70 0 120 50t50 120-50 121-120 51-121-51-51-121 51-120 121-50zM598 896q-34 0-60-25t-26-61 25-60 61-24q34 0 59 24t25 60-25 61-59 25zM776 982q32 0 55-23t23-55v-614q0-32-23-54t-55-22h-358q-32 0-54 22t-22 54v614q0 32 22 55t54 23h358z" />
<glyph unicode="&#xea4c;" glyph-name="uniE32F" d="M810 256v512h-596v-512h596zM896 854q34 0 60-26t26-60l-2-512q0-34-25-60t-59-26h-768q-34 0-60 26t-26 60v512q0 34 26 60t60 26h768z" />
<glyph unicode="&#xea4d;" glyph-name="uniE330" d="M822 214v682h-620v-682h620zM598 86v42h-172v-42h172zM768 1024q52 0 90-38t38-90v-768q0-52-38-90t-90-38h-512q-52 0-90 38t-38 90v768q0 52 38 90t90 38h512z" />
<glyph unicode="&#xea4e;" glyph-name="uniE331" d="M810 214v682h-640v-682h640zM490 42q26 0 45 19t19 45-19 45-45 19-45-19-19-45 19-45 45-19zM790 1024q44 0 75-31t31-75v-812q0-44-31-75t-75-31h-598q-44 0-75 31t-31 75v812q0 44 31 75t75 31h598z" />
<glyph unicode="&#xea4f;" glyph-name="uniE332" d="M512 512q0-96-69-165t-165-69-166 69-70 165h470zM512 512q-96 0-165 69t-69 165 69 166 165 70v-470zM512 512q96 0 165-69t69-165-69-166-165-70v470zM512 512q0 96 69 165t165 69 166-69 70-165h-470z" />
<glyph unicode="&#xea50;" glyph-name="uniE333" d="M896 298v512h-768v-512h768zM896 896q34 0 60-26t26-60l-2-512q0-34-25-59t-59-25h-214v-86h-340v86h-214q-34 0-60 25t-26 59v512q0 34 26 60t60 26h768z" />
<glyph unicode="&#xea51;" glyph-name="uniE334" d="M256 512q0-106 75-181t181-75 181 75 75 181-75 181-181 75-181-75-75-181zM854 512q0-164-130-268l-42-244h-340l-42 244q-130 100-130 268t130 268l42 244h340l42-244q130-104 130-268z" />
<glyph unicode="&#xea52;" glyph-name="uniE335" d="M726 342h170v-214h-214v130l-170 180-170-180v-130h-214v214h170l172 170v136q-38 14-62 46t-24 74q0 52 38 90t90 38 90-38 38-90q0-42-24-74t-62-46v-136z" />
<glyph unicode="&#xea53;" glyph-name="uniE336" d="M682 384v86h214v-86h-214zM384 384v86h214v-86h-214zM86 384v86h212v-86h-212zM86 640h810v-86h-810v86z" />
<glyph unicode="&#xea54;" glyph-name="uniE337" d="M896 256v342h-170v-342h170zM938 682q16 0 30-13t14-29v-426q0-16-14-30t-30-14h-256q-16 0-29 14t-13 30v426q0 16 13 29t29 13h256zM470 278q26 0 45 19t19 45-19 45-45 19-45-19-19-45 19-45 45-19zM554 512v-76q44-40 44-94 0-56-44-96v-76h-170v76q-42 38-42 96 0 56 42 94v76h170zM128 768v-512h170v-86h-170q-34 0-60 26t-26 60v512q0 34 26 60t60 26h768v-86h-768z" />
<glyph unicode="&#xea55;" glyph-name="uniE338" d="M832 512q28 0 46 18t18 46-18 46-46 18-46-18-18-46 18-46 46-18zM662 384q26 0 45 18t19 46-19 46-45 18-45-18-19-46 19-46 45-18zM470 470v84h-128v128h-86v-128h-128v-84h128v-128h86v128h128zM896 768q34 0 60-26t26-60v-340q0-34-26-60t-60-26h-768q-34 0-60 26t-26 60v340q0 34 26 60t60 26h768z" />
<glyph unicode="&#xea56;" glyph-name="uniE39E" d="M640 512q0-52-38-90t-90-38-90 38-38 90 38 90 90 38 90-38 38-90zM512 170q140 0 241 101t101 241-101 241-241 101-241-101-101-241 101-241 241-101zM512 938q176 0 301-125t125-301-125-301-301-125-301 125-125 301 125 301 301 125z" />
<glyph unicode="&#xea57;" glyph-name="uniE39F" d="M592 474l176 80-176 80-80 176-80-176-176-80 176-80 80-176zM810 938q34 0 60-25t26-59v-598q0-34-26-60t-60-26h-170l-128-128-128 128h-170q-34 0-60 26t-26 60v598q0 34 26 59t60 25h596z" />
<glyph unicode="&#xea58;" glyph-name="uniE3A1" d="M512 896h298v-128h-170v-470h-2q-8-72-62-121t-128-49q-80 0-136 56t-56 136 56 136 136 56q34 0 64-12v396z" />
<glyph unicode="&#xea59;" glyph-name="uniE3A2" d="M598 470q18 0 30-13t12-31-12-30-30-12-31 12-13 30 13 31 31 13zM598 320q20 0 20-22 0-20-20-20-22 0-22 20 0 22 22 22zM512 170q140 0 241 101t101 241-101 241-241 101-241-101-101-241 101-241 241-101zM512 938q176 0 301-125t125-301-125-301-301-125-301 125-125 301 125 301 301 125zM726 618q20 0 20-20 0-22-20-22-22 0-22 22 0 20 22 20zM726 448q20 0 20-22 0-20-20-20-22 0-22 20 0 22 22 22zM598 704q-22 0-22 22 0 20 22 20 20 0 20-20 0-22-20-22zM598 640q18 0 30-12t12-30-12-31-30-13-31 13-13 31 13 30 31 12zM426 704q-20 0-20 22 0 20 20 20 22 0 22-20 0-22-22-22zM298 448q22 0 22-22 0-20-22-20-20 0-20 20 0 22 20 22zM426 320q22 0 22-22 0-20-22-20-20 0-20 20 0 22 20 22zM298 618q22 0 22-20 0-22-22-22-20 0-20 22 0 20 20 20zM426 470q18 0 31-13t13-31-13-30-31-12-30 12-12 30 12 31 30 13zM426 640q18 0 31-12t13-30-13-31-31-13-30 13-12 31 12 30 30 12z" />
<glyph unicode="&#xea5a;" glyph-name="uniE3A3" d="M554 298q-18 0-30 13t-12 31 12 30 30 12 31-12 13-30-13-31-31-13zM554 470q-18 0-30 12t-12 30 12 30 30 12 31-12 13-30-13-30-31-12zM554 640q-18 0-30 12t-12 30 12 31 30 13 31-13 13-31-13-30-31-12zM726 490q-22 0-22 22t22 22q20 0 20-22t-20-22zM726 662q-22 0-22 20 0 22 22 22 20 0 20-22 0-20-20-20zM128 896h768v-86h-768v86zM726 320q-22 0-22 22 0 20 22 20 20 0 20-20 0-22-20-22zM384 298q-18 0-30 13t-12 31 12 30 30 12 30-12 12-30-12-31-30-13zM214 448q-26 0-45 18t-19 46 19 46 45 18 45-18 19-46-19-46-45-18zM214 618q-26 0-45 19t-19 45 19 45 45 19 45-19 19-45-19-45-45-19zM128 128v86h768v-86h-768zM384 640q-18 0-30 12t-12 30 12 31 30 13 30-13 12-31-12-30-30-12zM384 470q-18 0-30 12t-12 30 12 30 30 12 30-12 12-30-12-30-30-12zM214 278q-26 0-45 19t-19 45 19 45 45 19 45-19 19-45-19-45-45-19z" />
<glyph unicode="&#xea5b;" glyph-name="uniE3A4" d="M128 448q22 0 22-22 0-20-22-20t-22 20q0 22 22 22zM256 298q18 0 30-12t12-30-12-30-30-12-30 12-12 30 12 30 30 12zM426 150q22 0 22-22t-22-22q-20 0-20 22t20 22zM128 618q22 0 22-20 0-22-22-22t-22 22q0 20 22 20zM256 470q18 0 30-13t12-31-12-30-30-12-30 12-12 30 12 31 30 13zM896 448q22 0 22-22 0-20-22-20t-22 20q0 22 22 22zM426 298q18 0 31-12t13-30-13-30-31-12-30 12-12 30 12 30 30 12zM106 800l54 54 694-694-56-54-160 162q2-4 2-12 0-18-12-30t-30-12-31 12-13 30 13 30 31 12q8 0 12-2l-120 120q-4-22-22-38t-42-16q-26 0-45 19t-19 45q0 24 16 42t38 22l-120 120q2-4 2-12 0-18-12-31t-30-13-30 13-12 31 12 30 30 12l12-2zM598 150q20 0 20-22t-20-22q-22 0-22 22t22 22zM768 726q-18 0-30 12t-12 30 12 30 30 12 30-12 12-30-12-30-30-12zM768 554q-18 0-30 13t-12 31 12 30 30 12 30-12 12-30-12-31-30-13zM768 384q-18 0-30 12t-12 30 12 31 30 13 30-13 12-31-12-30-30-12zM426 726q-18 0-30 12t-12 30 12 30 30 12 31-12 13-30-13-30-31-12zM896 576q-22 0-22 22 0 20 22 20t22-20q0-22-22-22zM426 874q-20 0-20 22t20 22q22 0 22-22t-22-22zM598 874q-22 0-22 22t22 22q20 0 20-22t-20-22zM588 534q-20 2-36 18t-18 36v10q0 26 19 45t45 19 45-19 19-45-19-45-45-19h-10zM598 726q-18 0-31 12t-13 30 13 30 31 12 30-12 12-30-12-30-30-12z" />
<glyph unicode="&#xea5c;" glyph-name="uniE3A5" d="M598 662q26 0 45-19t19-45-19-45-45-19-45 19-19 45 19 45 45 19zM598 490q26 0 45-19t19-45-19-45-45-19-45 19-19 45 19 45 45 19zM426 298q18 0 31-12t13-30-13-30-31-12-30 12-12 30 12 30 30 12zM426 662q26 0 45-19t19-45-19-45-45-19-45 19-19 45 19 45 45 19zM598 150q20 0 20-22t-20-22q-22 0-22 22t22 22zM598 298q18 0 30-12t12-30-12-30-30-12-31 12-13 30 13 30 31 12zM896 448q22 0 22-22 0-20-22-20t-22 20q0 22 22 22zM768 810q18 0 30-12t12-30-12-30-30-12-30 12-12 30 12 30 30 12zM768 640q18 0 30-12t12-30-12-31-30-13-30 13-12 31 12 30 30 12zM768 298q18 0 30-12t12-30-12-30-30-12-30 12-12 30 12 30 30 12zM768 470q18 0 30-13t12-31-12-30-30-12-30 12-12 30 12 31 30 13zM426 490q26 0 45-19t19-45-19-45-45-19-45 19-19 45 19 45 45 19zM426 726q-18 0-30 12t-12 30 12 30 30 12 31-12 13-30-13-30-31-12zM426 874q-20 0-20 22t20 22q22 0 22-22t-22-22zM426 150q22 0 22-22t-22-22q-20 0-20 22t20 22zM128 448q22 0 22-22 0-20-22-20t-22 20q0 22 22 22zM598 874q-22 0-22 22t22 22q20 0 20-22t-20-22zM598 726q-18 0-31 12t-13 30 13 30 31 12 30-12 12-30-12-30-30-12zM896 576q-22 0-22 22 0 20 22 20t22-20q0-22-22-22zM256 810q18 0 30-12t12-30-12-30-30-12-30 12-12 30 12 30 30 12zM128 618q22 0 22-20 0-22-22-22t-22 22q0 20 22 20zM256 640q18 0 30-12t12-30-12-31-30-13-30 13-12 31 12 30 30 12zM256 298q18 0 30-12t12-30-12-30-30-12-30 12-12 30 12 30 30 12zM256 470q18 0 30-13t12-31-12-30-30-12-30 12-12 30 12 31 30 13z" />
<glyph unicode="&#xea5d;" glyph-name="uniE3A6" d="M86 512q0 176 125 301t301 125 301-125 125-301-125-301-301-125-301 125-125 301z" />
<glyph unicode="&#xea5e;" glyph-name="uniE3A7" d="M426 938q178 0 303-125t125-301-125-301-303-125q-116 0-212 56 98 56 155 155t57 215-57 215-155 155q96 56 212 56z" />
<glyph unicode="&#xea5f;" glyph-name="uniE3A8" d="M384 938q176 0 301-125t125-301-125-301-301-125q-68 0-128 18 132 40 215 153t83 255-83 255-215 153q60 18 128 18z" />
<glyph unicode="&#xea60;" glyph-name="uniE3A9" d="M512 256q106 0 181 75t75 181-75 181-181 75q-52 0-106-24 66-30 107-93t41-139-41-139-107-93q54-24 106-24zM854 654l140-142-140-142v-200h-200l-142-140-142 140h-200v200l-140 142 140 142v200h200l142 140 142-140h200v-200z" />
<glyph unicode="&#xea61;" glyph-name="uniE3AD" d="M768 536l128-128v-194q0-34-26-60t-60-26h-596q-34 0-60 26t-26 60v280l128-128 170 172 172-172zM896 810v-280l-128 128-170-172-172 172-170-172-128 130v194q0 34 26 60t60 26h596q34 0 60-26t26-60z" />
<glyph unicode="&#xea62;" glyph-name="uniE3AE" d="M884 826q12-12 12-30t-12-30l-382-382-118 118 382 382q12 12 30 12t30-12zM298 426q52 0 90-38t38-90q0-70-50-120t-120-50q-104 0-170 86 30 0 57 23t27 61q0 52 38 90t90 38z" />
<glyph unicode="&#xea63;" glyph-name="uniE3AF" d="M420 96q8 14 86 150t120 206l156-270q-118-96-270-96-42 0-92 10zM104 384h414l-158-270q-92 34-159 105t-97 165zM198 800l216-374h-320q-8 38-8 86 0 166 112 288zM930 598q8-38 8-86 0-166-112-288l-204 352-12 22h320zM920 640h-414l158 270q92-34 159-105t97-165zM402 576l-4-4-156 270q118 96 270 96 42 0 92-10z" />
<glyph unicode="&#xea64;" glyph-name="uniE557" d="M512 298q88 0 151 63t63 151-63 151-151 63-151-63-63-151 63-151 151-63zM384 938h256l78-84h136q34 0 59-26t25-60v-512q0-34-25-60t-59-26h-684q-34 0-59 26t-25 60v512q0 34 25 60t59 26h136zM376 512q0 56 40 96t96 40 96-40 40-96-40-96-96-40-96 40-40 96z" />
<glyph unicode="&#xea65;" glyph-name="uniE3B1" d="M298 938v-448q0 48 73 78t141 30 141-30 73-78v448h-428zM726 1024q34 0 59-26t25-60v-596q0-34-25-60t-59-26h-300l128-128-128-128v86h-212v84h212v86h-128q-34 0-59 26t-25 60v596q0 34 25 60t59 26h428zM512 682q-34 0-59 26t-25 60 25 60 59 26 60-26 26-60-26-60-60-26zM598 170h212v-84h-212v84z" />
<glyph unicode="&#xea66;" glyph-name="uniE3B2" d="M512 768q34 0 59 26t25 60-25 59-59 25-60-25-26-59 25-60 61-26zM726 1024q34 0 59-26t25-60v-596q0-34-25-60t-59-26h-300l128-128-128-128v86h-212v84h212v86h-128q-34 0-59 26t-25 60v596q0 34 25 60t59 26h428zM598 170h212v-84h-212v84z" />
<glyph unicode="&#xea67;" glyph-name="uniE3B3" d="M854 640v86h-86v-86h86zM854 256v86h-86v-86h86zM682 640v86h-84v-86h84zM682 256v86h-84v-86h84zM512 640v86h-86v-86h86zM512 256v86h-86v-86h86zM598 810h340v-640h-340q0-34-26-59t-60-25h-342q-34 0-59 25t-25 59v640q0 34 25 60t59 26h44v42q0 18 12 31t30 13h170q18 0 31-13t13-31v-42h42q34 0 60-26t26-60z" />
<glyph unicode="&#xea68;" glyph-name="uniE3B4" d="M810 214v170h86v-170q0-34-26-60t-60-26h-170v86h170zM810 896q34 0 60-26t26-60v-170h-86v170h-170v86h170zM214 810v-170h-86v170q0 34 26 60t60 26h170v-86h-170zM214 384v-170h170v-86h-170q-34 0-60 26t-26 60v170h86zM512 682q70 0 120-50t50-120-50-120-120-50-120 50-50 120 50 120 120 50z" />
<glyph unicode="&#xea69;" glyph-name="uniE3B5" d="M512 426q34 0 60 26t26 60-26 60-60 26-60-26-26-60 26-60 60-26zM512 682q70 0 120-50t50-120-50-120-120-50-120 50-50 120 50 120 120 50zM810 214v170h86v-170q0-34-26-60t-60-26h-170v86h170zM810 896q34 0 60-26t26-60v-170h-86v170h-170v86h170zM214 810v-170h-86v170q0 34 26 60t60 26h170v-86h-170zM214 384v-170h170v-86h-170q-34 0-60 26t-26 60v170h86z" />
<glyph unicode="&#xea6a;" glyph-name="uniE413" d="M86 768h84v-598h598v-84h-598q-34 0-59 25t-25 59v598zM470 512l-128-170h512l-172 212-126-158zM938 342q0-34-25-60t-59-26h-512q-34 0-60 26t-26 60v512q0 34 26 59t60 25h512q34 0 59-25t25-59v-512z" />
<glyph unicode="&#xea6b;" glyph-name="uniE40A" d="M746 512q26 0 45 18t19 46-19 46-45 18-45-18-19-46 19-46 45-18zM618 682q26 0 45 19t19 45-19 45-45 19-45-19-19-45 19-45 45-19zM406 682q26 0 45 19t19 45-19 45-45 19-45-19-19-45 19-45 45-19zM278 512q26 0 45 18t19 46-19 46-45 18-45-18-19-46 19-46 45-18zM512 896q158 0 271-100t113-242q0-88-63-150t-151-62h-74q-28 0-46-19t-18-45q0-22 16-42t16-44q0-28-18-46t-46-18q-160 0-272 112t-112 272 112 272 272 112z" />
<glyph unicode="&#xea6c;" glyph-name="uniE3B8" d="M296 214l344 344-82 82-344-344zM884 784q30-30 0-60l-134-134 82-82-60-60-60 60-382-380h-202v202l380 382-60 60 60 60 82-82 134 134q12 12 30 12t30-12z" />
<glyph unicode="&#xea6d;" glyph-name="uniE3B9" d="M810 896q34 0 60-26t26-60v-596q0-34-26-60t-60-26h-212v384l212-256v554h-212v86h212zM426 256v256l-212-256h212zM426 896v86h86v-940h-86v86h-212q-34 0-60 26t-26 60v596q0 34 26 60t60 26h212z" />
<glyph unicode="&#xea6e;" glyph-name="uniE3BB" d="M640 214q124 0 211 87t87 211-87 211-211 87-211-87-87-211 87-211 211-87zM640 896q160 0 272-112t112-272-112-272-272-112-272 112-112 272 112 272 272 112zM86 512q0-88 46-161t124-109v-92q-112 40-184 140t-72 222 72 222 184 140v-92q-78-36-124-109t-46-161zM682 682v-128h128v-84h-128v-128h-84v128h-128v84h128v128h84z" />
<glyph unicode="&#xea6f;" glyph-name="uniE3BC" d="M810 342v340h-596v-340h596zM810 768q34 0 60-26t26-60v-340q0-34-26-60t-60-26h-596q-34 0-60 26t-26 60v340q0 34 26 60t60 26h596z" />
<glyph unicode="&#xea70;" glyph-name="uniE3BD" d="M810 256v512h-596v-512h596zM810 854q34 0 60-26t26-60v-512q0-34-26-60t-60-26h-596q-34 0-60 26t-26 60v512q0 34 26 60t60 26h596z" />
<glyph unicode="&#xea71;" glyph-name="uniE3BE" d="M298 298h684v-84h-172v-172h-84v172h-428q-34 0-59 25t-25 59v428h-172v84h172v172h84v-684zM726 384v342h-342v84h342q34 0 59-25t25-59v-342h-84z" />
<glyph unicode="&#xea72;" glyph-name="uniE3C3" d="M810 298v428h-596v-428h596zM810 810q34 0 60-25t26-59v-428q0-34-26-59t-60-25h-596q-34 0-60 25t-26 59v428q0 34 26 59t60 25h596z" />
<glyph unicode="&#xea73;" glyph-name="uniE3C0" d="M810 384v256h-596v-256h596zM810 726q34 0 60-26t26-60v-256q0-34-26-60t-60-26h-596q-34 0-60 26t-26 60v256q0 34 26 60t60 26h596z" />
<glyph unicode="&#xea74;" glyph-name="uniE3C1" d="M810 214v596h-596v-596h596zM810 896q34 0 60-26t26-60v-596q0-34-26-60t-60-26h-596q-34 0-60 26t-26 60v596q0 34 26 60t60 26h596z" />
<glyph unicode="&#xea75;" glyph-name="uniE3C2" d="M810 896q34 0 60-26t26-60v-170h-86v170h-170v86h170zM810 214v170h86v-170q0-34-26-60t-60-26h-170v86h170zM214 384v-170h170v-86h-170q-34 0-60 26t-26 60v170h86zM128 810q0 34 26 60t60 26h170v-86h-170v-170h-86v170z" />
<glyph unicode="&#xea76;" glyph-name="uniE3C4" d="M596 500l150-202h-468l116 152 84-102zM810 214v596h-596v-596h596zM810 896q34 0 60-26t26-60v-596q0-34-26-60t-60-26h-596q-34 0-60 26t-26 60v596q0 34 26 60t60 26h596z" />
<glyph unicode="&#xea77;" glyph-name="uniE3C5" d="M726 214v596h-428v-596h428zM726 896q34 0 59-26t25-60v-596q0-34-25-60t-59-26h-428q-34 0-59 26t-25 60v596q0 34 25 60t59 26h428z" />
<glyph unicode="&#xea78;" glyph-name="uniE3C6" d="M768 256v512h-512v-512h512zM768 854q34 0 60-26t26-60v-512q0-34-26-60t-60-26h-512q-34 0-60 26t-26 60v512q0 34 26 60t60 26h512z" />
<glyph unicode="&#xea79;" glyph-name="uniE3C7" d="M86 790h852v-86h-852v86zM86 576h852v-86h-852v86zM86 362h852v-84h-852v84z" />
<glyph unicode="&#xea7a;" glyph-name="uniE3C8" d="M272 768l240-426 240 426h-480zM128 854h768l-384-684z" />
<glyph unicode="&#xea7b;" glyph-name="uniE3CA" d="M854 170v684l-684-684h684zM214 810v-84h256v84h-256zM854 938q34 0 59-25t25-59v-684q0-34-25-59t-59-25h-684q-34 0-59 25t-25 59v684q0 34 25 59t59 25h684zM640 298h-86v86h86v86h86v-86h84v-86h-84v-84h-86v84z" />
<glyph unicode="&#xea7c;" glyph-name="uniE3CB" d="M810 256h-84v454l-128-44v72l200 72h12v-554zM170 554h342v-84h-342v84z" />
<glyph unicode="&#xea7d;" glyph-name="uniE3CC" d="M86 554h340v-84h-340v84zM702 810q172 0 172-150 0-28-8-50-14-38-22-50-34-54-80-100l-122-132h254v-72h-368v64l178 194q36 36 62 80 14 24 14 56 0 26-4 36-20 52-76 52-92 0-92-98h-92q0 72 48 120 50 50 136 50z" />
<glyph unicode="&#xea7e;" glyph-name="uniE3CD" d="M854 256h-86v454l-128-44v72l200 72h14v-554zM426 726v-172h172v-84h-172v-172h-84v172h-172v84h172v172h84z" />
<glyph unicode="&#xea7f;" glyph-name="uniE3CE" d="M342 726v-172h170v-84h-170v-172h-86v172h-170v84h170v172h86zM684 328h254v-72h-368v64l178 194q36 36 62 80 16 26 16 56 0 32-22 62-20 26-60 26-42 0-70-28-22-22-22-70h-92q0 72 48 120 28 28 58 38 36 12 80 12 36 0 72-10 40-16 54-30 46-40 46-110 0-48-32-100-24-40-34-50-28-32-46-50z" />
<glyph unicode="&#xea80;" glyph-name="uniE3CF" d="M598 592q0 80-22 114-8 12-28 24-14 8-36 8t-36-8q-20-12-28-24-22-34-22-114v-114q0-112 50-142 14-8 36-8 42 0 64 34 24 36 24 116v114h-2zM336 578q0 232 176 232 130 0 164-124 14-52 14-108v-88h-2q0-118-48-180-28-32-56-42-32-12-72-12t-72 12q-28 10-56 42-48 54-48 180v88z" />
<glyph unicode="&#xea81;" glyph-name="uniE3D0" d="M896 298v598h-598v-598h598zM896 982q34 0 60-26t26-60v-598q0-34-26-59t-60-25h-598q-34 0-59 25t-25 59v598q0 34 25 60t59 26h598zM598 384v342h-86v84h170v-426h-84zM128 810v-682h682v-86h-682q-34 0-60 26t-26 60v682h86z" />
<glyph unicode="&#xea82;" glyph-name="uniE3D1" d="M726 470v-86h-256v170q0 36 25 61t59 25h86v86h-170v84h170q36 0 61-24t25-60v-86q0-36-26-61t-60-25h-86v-84h172zM896 298v598h-598v-598h598zM896 982q34 0 60-26t26-60v-598q0-34-26-59t-60-25h-598q-34 0-59 25t-25 59v598q0 34 25 60t59 26h598zM128 810v-682h682v-86h-682q-34 0-60 26t-26 60v682h86z" />
<glyph unicode="&#xea83;" glyph-name="uniE3D2" d="M726 470q0-36-26-61t-60-25h-170v86h170v84h-86v86h86v86h-170v84h170q36 0 61-24t25-60v-64q0-26-19-45t-45-19q26 0 45-19t19-45v-64zM128 810v-682h682v-86h-682q-34 0-60 26t-26 60v682h86zM896 298v598h-598v-598h598zM896 982q34 0 60-26t26-60v-598q0-34-26-59t-60-25h-598q-34 0-59 25t-25 59v598q0 34 25 60t59 26h598z" />
<glyph unicode="&#xea84;" glyph-name="uniE3D3" d="M896 298v598h-598v-598h598zM896 982q34 0 60-26t26-60v-598q0-34-26-59t-60-25h-598q-34 0-59 25t-25 59v598q0 34 25 60t59 26h598zM128 810v-682h682v-86h-682q-34 0-60 26t-26 60v682h86zM680 584l152-200h-470l118 150 84-100z" />
<glyph unicode="&#xea85;" glyph-name="uniE3D4" d="M896 298v598h-598v-598h598zM896 982q34 0 60-26t26-60v-598q0-34-26-59t-60-25h-598q-34 0-59 25t-25 59v598q0 34 25 60t59 26h598zM640 384v170h-170v256h84v-170h86v170h86v-426h-86zM128 810v-682h682v-86h-682q-34 0-60 26t-26 60v682h86z" />
</font>
</defs>
</svg>
